<?xml version="1.0" encoding="UTF-8"?>
<svg id="_レイヤー_2" data-name="レイヤー 2" xmlns="http://www.w3.org/2000/svg" viewBox="0 0 89.71 110">
  <defs>
    <style>
      .cls-1 {
        fill: #a88669;
      }
    </style>
  </defs>
  <g id="_レイヤー_1-2" data-name="レイヤー 1">
    <path class="cls-1" d="M88.52,55.16c-1.04,1.49-14.58,20.89-19.61,28.69-4.81,7.46-12.39,11.44-12.46,11.48-.8.41-1.29,1.22-1.29,2.11v12.54l-46.44.02-.02-14.75c0-.66-.28-1.3-.77-1.75C2.69,88.72.02,81.53.02,72.13l-.02-53.59c0-.99.4-2.64,1.53-4.04,1.14-1.41,2.65-2.13,4.49-2.13,4.5,0,6.02,4.15,6.02,6.05v27.69c.02,1.31,1.07,2.37,2.38,2.37.65,0,1.25-.27,1.67-.69.44-.43.69-1.02.69-1.67v-27.61s0-.05,0-.08v-7.53c0-3.21,2.77-5.83,6.17-5.83s5.95,2.43,6.14,5.5v.33c0,.07,0,.13.02.18v34.17c0,1.31,1.06,2.38,2.37,2.38s2.38-1.06,2.38-2.38V10.9c0-.12-.02-.23-.02-.34v-4.72c0-3.22,2.91-5.83,6.5-5.83s6.5,2.61,6.5,5.83v38.26c0,1.31,1.06,2.38,2.38,2.38s2.37-1.06,2.37-2.38V11.17c0-3.59,2.92-6.5,6.51-6.5s6.5,2.91,6.5,6.5l-.03,34.93v11.68c0,.99.62,1.87,1.56,2.23.93.34,1.98.07,2.63-.69l10.27-12.06s.05-.05.07-.08c2.06-2.64,5.94-3.24,8.48-1.29,2.43,1.86,2.84,5.92.95,9.28Z"/>
  </g>
</svg>