<?xml version="1.0" encoding="UTF-8"?>
<svg id="_レイヤー_2" data-name="レイヤー 2" xmlns="http://www.w3.org/2000/svg" viewBox="0 0 138.72 106.88">
  <defs>
    <style>
      .cls-1 {
        fill: #f1dbca;
      }

      .cls-2 {
        fill: #947574;
      }
    </style>
  </defs>
  <g id="_レイヤー_1-2" data-name="レイヤー 1">
    <g>
      <path class="cls-2" d="M27.46,15.16c1-2.51,1.04-5.59,1.04-8.5V1.56c0-.36.23-.53.58-.38l.82.35h1.91l.26-.35c.2-.26.44-.3.71-.08l.51.41c.28.23.38.49.2.58-.1.05-.21.08-.33.12v10.96c0,.85-.13,1.41-1.2,1.63-.33.08-.51-.1-.59-.41-.05-.18-.12-.33-.21-.43-.13-.15-.33-.28-.66-.38-.3-.08-.46-.13-.46-.21s.18-.12.53-.08c.48.03.9.07,1.07.07.25,0,.3-.11.3-.35v-3.44h-2.32c-.13,2.02-.56,4.14-1.79,5.82-.18.23-.33.33-.41.28-.08-.05-.07-.21.07-.51ZM31.92,5.7h-2.22v.94c0,.77,0,1.59-.07,2.43h2.29v-3.37ZM31.92,5.23v-3.22h-2.22v3.22h2.22ZM32.84,15.17c1.53-2.28,1.73-5.14,1.73-8.1V1.68c0-.36.23-.53.58-.38l.86.38h1.96l.36-.44c.2-.25.44-.28.69-.05l.56.51c.26.25.35.53.13.61-.1.03-.21.05-.36.08v10.91c0,.25.05.35.28.35h.43c.21,0,.36,0,.46-.02.08,0,.13-.03.18-.21.1-.26.28-1.4.44-2.42,0-.03.02-.05.02-.08.05-.3.13-.44.18-.44s.08.16.1.49l.07,2.58c.36.16.43.31.43.58,0,.51-.48.79-1.91.79h-.74c-.99,0-1.15-.36-1.15-1.22V2.15h-2.33v4.91c0,2.88-.2,6.11-2.66,8.38-.2.2-.36.26-.44.21-.08-.05-.02-.21.16-.49Z"/>
      <path class="cls-2" d="M44.07,7.58h1.27l.39-.54c.18-.26.44-.31.69-.08l.66.59c.28.25.35.51.1.61-.12.03-.25.07-.41.1v4.32c1.1,1.28,2.27,1.46,5.05,1.46,1.69,0,3.93,0,5.79-.05.31-.02.49.03.49.1s-.15.12-.38.26c-.2.12-.33.28-.43.51-.12.28-.26.43-.56.43h-4.9c-2.91,0-4.18-.41-5.28-2.38-.59.76-1.48,1.79-2.05,2.35,0,0-.38.13-.56-.23l-.25-.46c-.15-.3-.07-.51.21-.66.49-.25,1.07-.58,1.64-.92v-4.91h-1.48c-.3,0-.46-.08-.49-.25-.03-.16.15-.25.49-.25ZM44.35,1.28c3.27,1.46,2.6,3.93,1.46,3.48-.23-.1-.3-.28-.36-.53-.21-.89-.76-1.86-1.33-2.6-.21-.26-.31-.41-.25-.46.07-.05.21-.03.48.1ZM47.77,2.34c.38-.2.72-.64.85-1.17.07-.3.1-.46.18-.46s.18.13.25.41c.03.15.05.3.07.43h6.95l.36-.41c.21-.25.48-.25.71-.02l.49.49c.26.28.35.56.16.59-.1.03-.2.05-.33.05-.3.35-.79.81-1.22,1.13.16.12.33.26.49.41.25.21.35.44.2.53-.08.05-.16.07-.26.07h-3.68v1.25h1.97l.33-.38c.2-.23.44-.26.69-.07l.58.46c.28.23.36.49.15.59-.1.05-.23.08-.36.12v3.76c0,.1-.61.38-1.02.38-.13,0-.21-.12-.21-.28v-.26h-2.12v1.59h2.73l.46-.61c.2-.26.44-.3.69-.08.23.18.44.38.66.58.23.21.35.44.2.53-.07.03-.15.05-.26.05h-4.47v1.35c0,.15-.54.43-1,.43-.15,0-.25-.18-.25-.49v-1.28h-3.88c-.28,0-.44-.07-.49-.23-.03-.15.16-.23.51-.23h3.86v-1.59h-2.09v.31c0,.13-.54.41-1.04.41-.11,0-.2-.18-.2-.49v-4.5c0-.36.23-.51.58-.36l.72.31h2.02v-1.25h-3.25c-.28,0-.46-.07-.51-.25-.03-.15.16-.25.51-.25h3.25v-.92c0-.33.2-.51.53-.48l.58.07c.39.05.69.28.51.41-.08.07-.2.1-.36.13v.79h2l.43-.54c.2-.26.35-.38.39-.33l.08.08.1-.46.15-.61h-7c-.02.79-.36,1.35-.77,1.58-.41.2-.97.13-1.15-.31-.11-.43.15-.77.54-.97ZM51.75,7.51v-1.38h-2.09v1.38h2.09ZM51.75,9.49v-1.5h-2.09v1.5h2.09ZM53,7.51h2.12v-1.38h-2.12v1.38ZM55.12,9.49v-1.5h-2.12v1.5h2.12Z"/>
      <path class="cls-2" d="M59.39,6.66c2.42-1.41,5.03-3.93,5.98-5.88.13-.28.33-.38.62-.31l.92.23c.41.1.69.36.49.43-.1.03-.23.07-.39.08,1.35,1.68,3.88,3.02,6.34,3.85.28.1.43.2.41.26-.02.07-.15.13-.38.28-.21.13-.39.35-.53.56-.15.28-.33.39-.61.25-2.37-1.13-4.49-2.93-5.52-5-1.43,2.07-4.32,4.32-7.23,5.52-.3.13-.46.15-.49.07-.03-.07.1-.18.38-.33ZM60.84,7.81c0-.38.23-.54.58-.38l.66.31h2.2l.3-.35c.18-.21.43-.23.67-.03l.46.36c.28.23.38.48.2.58-.1.03-.2.08-.31.1v5.08c0,.12-.61.39-.99.39-.13,0-.21-.18-.21-.49v-.79h-2.37v1.43c0,.12-.49.41-1,.41-.12,0-.18-.18-.18-.49v-6.13ZM64.39,8.24h-2.37v3.88h2.37v-3.88ZM63.52,5.36h3.88l.48-.59c.2-.26.44-.28.69-.08l.69.58c.25.21.36.44.21.54-.07.03-.16.05-.26.05h-5.69c-.28,0-.46-.07-.51-.25-.03-.15.16-.25.51-.25ZM66.97,7.71c0-.38.23-.53.58-.38l.71.33h2.4l.3-.36c.18-.23.43-.26.67-.07l.56.43c.28.21.38.49.2.58-.1.05-.21.1-.35.11v4.14c0,.81-.13,1.31-1.15,1.53-.33.07-.51-.1-.58-.38-.05-.16-.1-.31-.18-.41-.13-.13-.31-.23-.61-.31-.3-.1-.44-.15-.44-.23s.18-.12.53-.08c.39.03.77.05.92.05.21,0,.28-.1.28-.31v-4.19h-2.61v6.97c0,.12-.49.43-1.02.43-.12,0-.2-.18-.2-.49v-7.35Z"/>
      <path class="cls-2" d="M16.16,58.59c2.95-1.7,5.99-4.04,7.93-6.15.49-.57,1.05-.65,1.66-.2l1.13.77c.81.57,1.33,1.42.89,1.46-.2,0-.49-.04-.81-.12-2.35,1.86-6.51,3.92-10.56,5.1-.69.2-1.05.2-1.17.04s.2-.49.93-.89ZM16.49,36.83h13.99v-3.64h-10.43c-.73,0-1.13-.24-1.21-.61-.08-.32.4-.57,1.25-.57h10.39v-3.6h-11.97c-.73,0-1.13-.24-1.21-.61-.08-.36.4-.57,1.25-.57h11.93v-2.63c0-.81.45-1.25,1.25-1.17l1.62.16c.93.08,1.66.65,1.21.97-.2.16-.49.24-.89.32v2.35h8.61l1.17-1.54c.49-.61,1.09-.69,1.74-.2l1.74,1.46c.61.53.89,1.09.53,1.33-.2.08-.45.12-.69.12h-13.1v3.6h7.4l1.05-1.38c.49-.61,1.09-.69,1.74-.2.53.4,1.05.89,1.54,1.29.61.53.89,1.09.49,1.33-.16.08-.4.12-.65.12h-11.57v3.64h10.23l1.17-1.66c.45-.65,1.09-.73,1.7-.2.61.53,1.25,1.05,1.82,1.58.61.53.85,1.09.49,1.29-.2.12-.4.16-.65.16h-16.02c-1.74,1.5-3.92,3.24-5.82,4.45,2.1,1.66,1.66,3.8.12,3.88-.57.04-.93-.32-1.29-.81-1.13-1.42-2.99-2.87-4.73-3.92-.73-.45-1.13-.73-1.01-.89.12-.12.48-.2,1.09-.16,2.14.2,3.68.65,4.81,1.25.81-1.21,1.74-2.67,2.39-3.8h-11.53c-.73,0-1.13-.24-1.21-.61-.08-.36.4-.57,1.25-.57ZM16.97,47.91c2.47.04,5.82,0,9.79-.04,3.2-2.43,6.71-5.58,8.94-8.09.49-.57,1.01-.65,1.66-.36l1.05.53c.97.49,1.58,1.21,1.17,1.33-.24.04-.48.04-.85,0-2.18,1.98-6.03,4.53-9.83,6.55.93,0,1.9-.04,2.91-.04l11.16-.24c-1.01-.93-2.18-1.82-3.24-2.51-.69-.45-1.01-.73-.89-.89.12-.12.49-.16,1.21-.04,9.71,1.82,9.67,7.97,6.96,7.72-.57-.08-.85-.45-1.17-.97-.53-.77-1.13-1.58-1.86-2.39-2.95.36-6.39.69-10.35,1.05v10.23c0,.2-1.05.77-2.59.77-.36,0-.57-.45-.57-1.21v-9.54c-3.68.32-7.77.65-12.38,1.01,0,.04-.04.08-.04.08-.45.65-1.21.28-1.54-.49l-.45-1.05c-.36-.85-.04-1.42.89-1.42ZM37.36,52.4c11.04,1.29,11.85,7.28,9.06,7.4-.61,0-.93-.28-1.34-.73-1.86-1.98-5.14-4.21-7.89-5.7-.77-.4-1.13-.69-1.01-.85.12-.16.48-.2,1.17-.12Z"/>
      <path class="cls-2" d="M53.76,58.64c2.44-6.13,2.52-13.63,2.52-20.72v-12.42c0-.88.56-1.28,1.4-.92l2,.84h4.65l.64-.84c.48-.64,1.08-.72,1.72-.2l1.24,1c.68.56.92,1.2.48,1.4-.24.12-.52.2-.8.28v26.73c0,2.08-.32,3.45-2.93,3.97-.8.2-1.24-.24-1.44-1-.12-.44-.28-.8-.52-1.04-.32-.36-.8-.68-1.6-.92-.72-.2-1.12-.32-1.12-.52s.44-.28,1.28-.2c1.16.08,2.2.16,2.61.16.6,0,.72-.28.72-.84v-8.38h-5.65c-.32,4.93-1.36,10.1-4.37,14.19-.44.56-.8.8-1,.68-.2-.12-.16-.52.16-1.24ZM64.62,35.6h-5.41v2.28c0,1.88,0,3.89-.16,5.93h5.57v-8.22ZM64.62,34.44v-7.86h-5.41v7.86h5.41ZM66.87,58.68c3.73-5.57,4.21-12.54,4.21-19.76v-13.15c0-.88.56-1.28,1.4-.92l2.08.92h4.77l.88-1.08c.48-.6,1.08-.68,1.68-.12l1.36,1.24c.64.6.84,1.28.32,1.48-.24.08-.52.12-.88.2v26.61c0,.6.12.84.68.84h1.04c.52,0,.88,0,1.12-.04.2,0,.32-.08.44-.52.24-.64.68-3.41,1.08-5.89,0-.08.04-.12.04-.2.12-.72.32-1.08.44-1.08s.2.4.24,1.2l.16,6.29c.88.4,1.04.76,1.04,1.4,0,1.24-1.16,1.92-4.65,1.92h-1.8c-2.4,0-2.81-.88-2.81-2.97v-28.13h-5.69v11.98c0,7.01-.48,14.91-6.49,20.44-.48.48-.88.64-1.08.52s-.04-.52.4-1.2Z"/>
      <path class="cls-2" d="M91.04,59.52c8.99-2.71,12.22-5.87,13.52-10.16h-13.03c-.69,0-1.09-.24-1.21-.61-.08-.36.4-.57,1.25-.57h13.28c.2-1.09.28-2.31.36-3.56.08-.81.53-1.21,1.3-1.13l1.82.16c.97.08,1.7.61,1.3.93-.2.16-.49.28-.85.32-.12,1.13-.24,2.23-.49,3.28h11.29l1.3-1.7c.49-.65,1.05-.73,1.7-.24.65.57,1.38,1.13,1.98,1.7.57.49.85,1.05.45,1.3-.16.08-.36.12-.65.12h-14.85c2.79,4.7,8.1,6.72,15.06,7.53.81.08,1.21.2,1.21.32-.04.2-.36.28-.89.65-.53.32-.97.85-1.25,1.46-.32.73-.73,1.05-1.46.89-6.88-1.7-11.25-4.61-13.56-10.85h-.57c-1.25,5.02-4.7,8.62-16.84,11.05-.77.16-1.21.16-1.3-.12-.08-.24.28-.53,1.13-.77ZM92.41,41.63h13.4v-4.82h-9.79c-.69,0-1.09-.24-1.21-.61-.08-.36.41-.57,1.25-.57h9.75v-4.57h-11.78c-.73,0-1.13-.24-1.21-.61s.41-.57,1.25-.57h16.35c.81-1.66,1.7-3.8,2.35-5.63.28-.73.77-1.01,1.54-.73l1.62.57c.93.32,1.58.97,1.09,1.17-.2.08-.48.12-.85.08-1.09,1.38-2.83,3.08-4.57,4.53h6.31l1.21-1.66c.48-.65,1.09-.73,1.74-.2l1.86,1.62c.57.53.85,1.05.44,1.3-.16.08-.4.12-.65.12h-13.44v4.57h7.04l1.13-1.54c.49-.61,1.09-.69,1.74-.2.57.49,1.13,1.01,1.66,1.46.61.53.89,1.09.49,1.34-.16.08-.4.12-.65.12h-11.41v4.82h9.92l1.25-1.7c.49-.61,1.09-.69,1.74-.16l1.86,1.58c.61.53.85,1.09.49,1.34-.2.08-.45.12-.69.12h-31.29c-.69,0-1.09-.24-1.21-.61-.08-.36.4-.57,1.25-.57ZM99.82,23.7c6.48,1.94,4.94,6.88,2.43,6.11-.61-.2-.77-.65-.97-1.25-.36-1.38-1.13-2.75-1.98-3.89-.49-.65-.73-.97-.61-1.09.16-.12.49-.08,1.13.12Z"/>
      <g>
        <path class="cls-2" d="M12.57,98.21l-.86-10.99H2.16c-.66,0-1.05-.23-1.17-.58-.08-.35.39-.55,1.21-.55h9.43l-.74-10.09H2.16c-.66,0-1.05-.23-1.17-.58-.08-.35.39-.55,1.21-.55h8.61l-.47-6.27c-.08-.82.35-1.21,1.13-1.17l1.79.12c.94.08,1.68.62,1.21.97-.23.16-.55.23-.97.31l.47,6.04h6.16l1.32-1.79c.47-.62,1.05-.66,1.64-.16.58.51,1.29,1.05,1.99,1.68.58.51.86,1.05.51,1.29-.19.08-.39.12-.66.12h-10.87l.78,10.09h5.3l1.32-1.79c.47-.62,1.05-.66,1.64-.16.58.51,1.29,1.05,1.99,1.68.58.51.86,1.05.51,1.29-.19.08-.39.12-.66.12h-9.97l.82,10.71c.04.47-1.21,1.29-2.49,1.4l-.31.04c-.19.04-.35-.43-.39-1.17Z"/>
        <path class="cls-2" d="M32.9,85.76l-3.04.12c-.7.04-1.09-.12-1.17-.47-.08-.27.39-.51,1.21-.55l2.88-.12-.62-5.69c-.08-.82.31-1.25,1.09-1.25h1.01c.94,0,1.75.43,1.36.74-.19.12-.43.23-.78.35l.66,5.73,11.18-.51.66-.78c.47-.58,1.05-.66,1.64-.23l.9.66c.74.55,1.01,1.17.58,1.36-.19.12-.47.23-.78.27-1.75,5.03-4.68,8.53-8.69,10.48-.66.31-1.09.31-1.21.08-.12-.23.16-.51.74-.97,3.23-2.34,5.34-5.65,6.23-9.9l-11.18.51,1.99,17.45c.08.62-.31,1.6-1.79,2.1-.43.12-.66,0-.7-.31l-2.18-19.09Z"/>
        <path class="cls-2" d="M55.74,98.73c-.08-.23.27-.51,1.05-.74,8.96-2.77,14.34-7.95,16.09-15.51h-18.04c-.66,0-1.09-.16-1.21-.58-.08-.35.39-.58,1.21-.58h17.65l.86-1.01c.47-.58,1.05-.62,1.64-.16l1.6,1.21c.7.55.9,1.21.35,1.44-.23.08-.55.19-.9.23-1.75,8.69-8.1,13.99-19.09,15.93-.7.12-1.09,0-1.21-.23ZM55.62,71.96h14.03l1.32-1.79c.47-.62,1.05-.66,1.64-.16.58.51,1.29,1.05,1.99,1.68.58.51.86,1.05.51,1.29-.19.08-.39.12-.66.12h-18.86c-.66,0-1.05-.23-1.17-.58-.08-.35.39-.55,1.21-.55Z"/>
        <path class="cls-2" d="M80.04,87.75c0-1,.61-1.39,1.52-.96l2.18,1h7.54v-19.57c0-.87.48-1.35,1.35-1.26l1.92.17c1,.09,1.79.7,1.31,1.09-.22.17-.52.26-1,.35v7.58h10.33l1.66-2.22c.52-.7,1.18-.78,1.83-.22.83.7,1.7,1.48,2.48,2.18.61.57.92,1.22.48,1.44-.17.09-.44.13-.74.13h-16.04v10.33h8.58l.91-1.18c.52-.7,1.18-.7,1.83-.17l1.74,1.39c.74.61.96,1.26.39,1.57-.26.13-.57.26-.96.35v15.03c0,.61-.13,1.09-.74,1.35-.61.26-1.57.57-2.27.57-.3,0-.52-.48-.52-1.31v-2.22h-20.26v2.53c0,.35-1.53,1.18-2.96,1.18-.35,0-.57-.48-.57-1.31v-17.82ZM83.57,101.91h20.26v-12.9h-20.26v12.9Z"/>
        <path class="cls-2" d="M117.03,77.29c0-.71.43-1.09,1.11-1.03l1.5.12c.86.05,1.53.58,1.09.86-.17.12-.45.21-.84.3-.25,9.38.33,16.08,1.75,20.05.38,1.04,1.11,1.36,2.16.97.77-.3,1.69-.96,2.7-1.94.6-.61,1.05-.92,1.13-.67.09.24,0,.57-.33,1.05-1.61,2.23-3.09,3.64-4.44,4.26-1.52.7-2.69.2-3.54-1.49-1.53-3.47-2.27-10.94-2.29-22.48ZM131.63,75.62c.24-.09.57.04.99.47,5.03,5.5,6.12,17.01,6.1,19.5-.08,1.68-.78,2.43-1.92,2.36-.68-.07-1.25-.57-1.26-1.42-.12-4.87-.8-11.38-3.9-19.74-.26-.7-.24-1.09,0-1.18Z"/>
      </g>
      <path class="cls-2" d="M89.3,11.4h8.79v-.65c0-.32.18-.5.5-.47l.5.05c.4.05.73.26.57.37-.06.05-.18.08-.32.11v.58h1.42l.42-.57c.19-.26.44-.29.68-.1.23.18.45.39.66.57.21.21.31.42.16.52-.06.03-.16.05-.26.05h-3.09v1.78c0,.87-.18,1.41-1.5,1.63-.31.05-.47-.1-.58-.37-.08-.18-.16-.31-.31-.42-.23-.16-.55-.27-1.12-.39-.31-.06-.45-.13-.45-.19s.18-.1.5-.08c.84.05,1.65.1,1.87.1.28,0,.34-.08.34-.32v-1.73h-8.82c-.28,0-.44-.1-.48-.24-.05-.15.16-.23.52-.23ZM89.33,4.92h1.34l.36-.53c.18-.27.42-.31.68-.08l.65.55c.27.24.32.52.08.61-.11.03-.26.06-.42.1v2.51c.89.99,2.02,1.1,3.96,1.1,1.39,0,4.72,0,6.48-.03.31-.02.48.03.48.1s-.15.1-.36.29c-.08.08-.15.16-.19.27-.11.27-.24.42-.53.42h-5.88c-2.08,0-3.23-.39-4.15-1.91l-.36.32c-.47.42-1.05.95-1.74,1.54,0,0-.44.23-.6-.1l-.23-.44c-.15-.31-.05-.53.26-.65.45-.16,1.05-.39,1.71-.65v-2.97h-1.55c-.29,0-.45-.06-.48-.23-.03-.13.16-.23.5-.23ZM90.17.93c2.8.57,2.39,2.63,1.37,2.44-.24-.05-.34-.23-.44-.45-.23-.57-.63-1.13-1.08-1.57-.23-.24-.36-.37-.31-.42.05-.05.19-.05.45,0ZM92.36,12.14c3.04.31,2.75,2.49,1.66,2.34-.24-.05-.36-.21-.47-.42-.28-.55-.81-1.12-1.33-1.52-.24-.19-.37-.32-.32-.37.05-.05.18-.06.45-.03ZM93.2,2.24h2.41l-.06-.03c-.06-.44-.32-.92-.63-1.29-.23-.24-.34-.37-.29-.42s.19-.06.45-.02c1.73.27,1.78,1.41,1.29,1.76h2c.16-.4.36-.94.5-1.41.1-.29.31-.42.6-.34l.6.15c.39.1.68.37.5.45-.1.03-.21.05-.36.05-.34.36-.86.76-1.36,1.1h1.96l.42-.55c.19-.24.42-.27.68-.08.21.18.42.36.61.53.24.19.36.42.19.52-.06.03-.15.05-.26.05h-4.38c-.23.34-.5.71-.78,1.02h2.62l.31-.34c.19-.23.44-.26.68-.06l.5.39c.28.23.37.48.18.57-.1.05-.21.08-.32.11v3.98c-.02.11-.6.4-1,.4-.13,0-.21-.11-.21-.31v-.29h-4.82v.23c0,.13-.53.4-1,.4-.11,0-.18-.18-.18-.48V3.79c0-.37.23-.53.57-.37l.68.31h1.24c.06-.31.15-.69.23-1.02h-3.57c-.27,0-.45-.08-.5-.24-.03-.15.16-.23.5-.23ZM95.23,5.05h4.82v-.86h-4.82v.86ZM100.05,6.37v-.86h-4.82v.86h4.82ZM100.05,7.7v-.87h-4.82v.87h4.82Z"/>
      <path class="cls-2" d="M81.16,4.87c-.05.12-.14.34-.26.63-.03.34.25.35.53.19.34-.19.57-.38.8-.38.3,0,.41.15.42.38,0,.22-.2.46-.54.65-.39.22-1.2.48-1.93.65-.42.82-.86,1.62-1.31,2.29-.07.11-.03.14.07.07.41-.29.9-.54,1.43-.54.69,0,1.14.3,1.29.88.84-1.58,2-2.45,3.14-2.45,1.85,0,2.23,1.9.53,2.57-1.28.5-2.6.9-3.58,1.32,0,.04-.01.1-.01.14,0,.6.01,1.31.01,1.58,0,.44-.19.63-.53.63-.3,0-.45-.22-.45-.63,0-.2.03-.71.05-1.22-.69.44-1.37,1.07-1.37,1.77s.73.84,1.88.84c.95,0,2.08-.3,2.45-.3s.61.15.61.42c0,.31-.2.49-.58.61-.49.15-1.46.26-2.38.26-1.78,0-2.83-.56-2.83-1.59,0-.87.78-1.88,2.27-2.79,0-.16.01-.34.01-.48,0-.78-.19-.97-.71-.97-.68,0-1.63.78-2.34,1.66-.38.48-.73,1.01-1.09,1.01-.27,0-.49-.29-.49-.64,0-.44.98-1.21,1.33-1.62.64-.75,1.24-1.69,1.71-2.65-.57.07-1.2.07-1.56.03-.69-.1-1.1-.78-1.18-1.4-.03-.23.18-.34.37-.18.34.3.71.58,1.13.67.44.08.98.08,1.65,0,.52-1.25.41-1.41-.16-1.73-.22-.12-.19-.34.04-.41.2-.07.39-.1.6-.1.33,0,.68.11.93.27.16.11.16.3.05.56ZM82.09,10.23c.67-.29,1.65-.68,2.59-1.14.97-.48.87-1.22-.03-1.22s-1.97,1.13-2.56,2.37Z"/>
      <path class="cls-2" d="M106.53,9.45c0,.24.09.42.33.68.75.77,2.21,2.19,2.72,3.15.28.53.38.83.38,1.25s-.26.7-.6.7-.55-.37-.83-1.1c-.52-1.36-1.52-2.68-2.23-3.46-.41-.45-.57-.77-.57-1.1,0-.41.24-.93.83-1.74.91-1.25,1.76-2.32,1.76-2.82,0-.29-.15-.37-.33-.64-.13-.19-.01-.36.22-.33.56.08,1.08.42,1.34.75.19.25.17.45-.11.87-.52.79-1.86,2-2.59,3.02-.22.3-.31.58-.31.76Z"/>
      <path class="cls-1" d="M26.86,14.71c1-2.51,1.04-5.59,1.04-8.5V1.12c0-.36.23-.53.58-.38l.82.35h1.91l.26-.35c.2-.26.44-.3.71-.08l.51.41c.28.23.38.49.2.58-.1.05-.21.08-.33.12v10.96c0,.85-.13,1.41-1.2,1.63-.33.08-.51-.1-.59-.41-.05-.18-.12-.33-.21-.43-.13-.15-.33-.28-.66-.38-.3-.08-.46-.13-.46-.21s.18-.12.53-.08c.48.03.9.07,1.07.07.25,0,.3-.11.3-.35v-3.44h-2.32c-.13,2.02-.56,4.14-1.79,5.82-.18.23-.33.33-.41.28-.08-.05-.07-.21.07-.51ZM31.31,5.26h-2.22v.94c0,.77,0,1.59-.07,2.43h2.29v-3.37ZM31.31,4.78V1.56h-2.22v3.22h2.22ZM32.23,14.73c1.53-2.28,1.73-5.14,1.73-8.1V1.23c0-.36.23-.53.58-.38l.86.38h1.96l.36-.44c.2-.25.44-.28.69-.05l.56.51c.26.25.35.53.13.61-.1.03-.21.05-.36.08v10.91c0,.25.05.35.28.35h.43c.21,0,.36,0,.46-.02.08,0,.13-.03.18-.21.1-.26.28-1.4.44-2.42,0-.03.02-.05.02-.08.05-.3.13-.44.18-.44s.08.16.1.49l.07,2.58c.36.16.43.31.43.58,0,.51-.48.79-1.91.79h-.74c-.99,0-1.15-.36-1.15-1.22V1.71h-2.33v4.91c0,2.88-.2,6.11-2.66,8.38-.2.2-.36.26-.44.21-.08-.05-.02-.21.16-.49Z"/>
      <path class="cls-1" d="M43.47,7.13h1.27l.39-.54c.18-.26.44-.31.69-.08l.66.59c.28.25.35.51.1.61-.12.03-.25.07-.41.1v4.32c1.1,1.28,2.27,1.46,5.05,1.46,1.69,0,3.93,0,5.79-.05.31-.02.49.03.49.1s-.15.12-.38.26c-.2.12-.33.28-.43.51-.12.28-.26.43-.56.43h-4.9c-2.91,0-4.18-.41-5.28-2.38-.59.76-1.48,1.79-2.05,2.35,0,0-.38.13-.56-.23l-.25-.46c-.15-.3-.07-.51.21-.66.49-.25,1.07-.58,1.64-.92v-4.91h-1.48c-.3,0-.46-.08-.49-.25-.03-.16.15-.25.49-.25ZM43.75.84c3.27,1.46,2.6,3.93,1.46,3.48-.23-.1-.3-.28-.36-.53-.21-.89-.76-1.86-1.33-2.6-.21-.26-.31-.41-.25-.46.07-.05.21-.03.48.1ZM47.16,1.89c.38-.2.72-.64.85-1.17.07-.3.1-.46.18-.46s.18.13.25.41c.03.15.05.3.07.43h6.95l.36-.41c.21-.25.48-.25.71-.02l.49.49c.26.28.35.56.16.59-.1.03-.2.05-.33.05-.3.35-.79.81-1.22,1.13.16.12.33.26.49.41.25.21.35.44.2.53-.08.05-.16.07-.26.07h-3.68v1.25h1.97l.33-.38c.2-.23.44-.26.69-.07l.58.46c.28.23.36.49.15.59-.1.05-.23.08-.36.12v3.76c0,.1-.61.38-1.02.38-.13,0-.21-.12-.21-.28v-.26h-2.12v1.59h2.73l.46-.61c.2-.26.44-.3.69-.08.23.18.44.38.66.58.23.21.35.44.2.53-.07.03-.15.05-.26.05h-4.47v1.35c0,.15-.54.43-1,.43-.15,0-.25-.18-.25-.49v-1.28h-3.88c-.28,0-.44-.07-.49-.23-.03-.15.16-.23.51-.23h3.86v-1.59h-2.09v.31c0,.13-.54.41-1.04.41-.11,0-.2-.18-.2-.49v-4.5c0-.36.23-.51.58-.36l.72.31h2.02v-1.25h-3.25c-.28,0-.46-.07-.51-.25-.03-.15.16-.25.51-.25h3.25v-.92c0-.33.2-.51.53-.48l.58.07c.39.05.69.28.51.41-.08.07-.2.1-.36.13v.79h2l.43-.54c.2-.26.35-.38.39-.33l.08.08.1-.46.15-.61h-7c-.02.79-.36,1.35-.77,1.58-.41.2-.97.13-1.15-.31-.11-.43.15-.77.54-.97ZM51.14,7.07v-1.38h-2.09v1.38h2.09ZM51.14,9.04v-1.5h-2.09v1.5h2.09ZM52.39,7.07h2.12v-1.38h-2.12v1.38ZM54.51,9.04v-1.5h-2.12v1.5h2.12Z"/>
      <path class="cls-1" d="M58.79,6.22c2.42-1.41,5.03-3.93,5.98-5.88.13-.28.33-.38.62-.31l.92.23c.41.1.69.36.49.43-.1.03-.23.07-.39.08,1.35,1.68,3.88,3.02,6.34,3.85.28.1.43.2.41.26-.02.07-.15.13-.38.28-.21.13-.39.35-.53.56-.15.28-.33.39-.61.25-2.37-1.13-4.49-2.93-5.52-5-1.43,2.07-4.32,4.32-7.23,5.52-.3.13-.46.15-.49.07-.03-.07.1-.18.38-.33ZM60.23,7.37c0-.38.23-.54.58-.38l.66.31h2.2l.3-.35c.18-.21.43-.23.67-.03l.46.36c.28.23.38.48.2.58-.1.03-.2.08-.31.1v5.08c0,.12-.61.39-.99.39-.13,0-.21-.18-.21-.49v-.79h-2.37v1.43c0,.12-.49.41-1,.41-.12,0-.18-.18-.18-.49v-6.13ZM63.78,7.79h-2.37v3.88h2.37v-3.88ZM62.91,4.92h3.88l.48-.59c.2-.26.44-.28.69-.08l.69.58c.25.21.36.44.21.54-.07.03-.16.05-.26.05h-5.69c-.28,0-.46-.07-.51-.25-.03-.15.16-.25.51-.25ZM66.36,7.27c0-.38.23-.53.58-.38l.71.33h2.4l.3-.36c.18-.23.43-.26.67-.07l.56.43c.28.21.38.49.2.58-.1.05-.21.1-.35.11v4.14c0,.81-.13,1.31-1.15,1.53-.33.07-.51-.1-.58-.38-.05-.16-.1-.31-.18-.41-.13-.13-.31-.23-.61-.31-.3-.1-.44-.15-.44-.23s.18-.12.53-.08c.39.03.77.05.92.05.21,0,.28-.1.28-.31v-4.19h-2.61v6.97c0,.12-.49.43-1.02.43-.12,0-.2-.18-.2-.49v-7.35Z"/>
      <path class="cls-1" d="M15.18,57.77c2.95-1.7,5.99-4.04,7.93-6.15.49-.57,1.05-.65,1.66-.2l1.13.77c.81.57,1.33,1.42.89,1.46-.2,0-.49-.04-.81-.12-2.35,1.86-6.51,3.92-10.56,5.1-.69.2-1.05.2-1.17.04s.2-.49.93-.89ZM15.5,36.01h13.99v-3.64h-10.43c-.73,0-1.13-.24-1.21-.61-.08-.32.4-.57,1.25-.57h10.39v-3.6h-11.97c-.73,0-1.13-.24-1.21-.61-.08-.36.4-.57,1.25-.57h11.93v-2.63c0-.81.45-1.25,1.25-1.17l1.62.16c.93.08,1.66.65,1.21.97-.2.16-.49.24-.89.32v2.35h8.61l1.17-1.54c.49-.61,1.09-.69,1.74-.2l1.74,1.46c.61.53.89,1.09.53,1.33-.2.08-.45.12-.69.12h-13.1v3.6h7.4l1.05-1.38c.49-.61,1.09-.69,1.74-.2.53.4,1.05.89,1.54,1.29.61.53.89,1.09.49,1.33-.16.08-.4.12-.65.12h-11.57v3.64h10.23l1.17-1.66c.45-.65,1.09-.73,1.7-.2.61.53,1.25,1.05,1.82,1.58.61.53.85,1.09.49,1.29-.2.12-.4.16-.65.16h-16.02c-1.74,1.5-3.92,3.24-5.82,4.45,2.1,1.66,1.66,3.8.12,3.88-.57.04-.93-.32-1.29-.81-1.13-1.42-2.99-2.87-4.73-3.92-.73-.45-1.13-.73-1.01-.89.12-.12.48-.2,1.09-.16,2.14.2,3.68.65,4.81,1.25.81-1.21,1.74-2.67,2.39-3.8h-11.53c-.73,0-1.13-.24-1.21-.61-.08-.36.4-.57,1.25-.57ZM15.99,47.1c2.47.04,5.82,0,9.79-.04,3.2-2.43,6.71-5.58,8.94-8.09.49-.57,1.01-.65,1.66-.36l1.05.53c.97.49,1.58,1.21,1.17,1.33-.24.04-.48.04-.85,0-2.18,1.98-6.03,4.53-9.83,6.55.93,0,1.9-.04,2.91-.04l11.16-.24c-1.01-.93-2.18-1.82-3.24-2.51-.69-.45-1.01-.73-.89-.89.12-.12.49-.16,1.21-.04,9.71,1.82,9.67,7.97,6.96,7.72-.57-.08-.85-.45-1.17-.97-.53-.77-1.13-1.58-1.86-2.39-2.95.36-6.39.69-10.35,1.05v10.23c0,.2-1.05.77-2.59.77-.36,0-.57-.45-.57-1.21v-9.54c-3.68.32-7.77.65-12.38,1.01,0,.04-.04.08-.04.08-.45.65-1.21.28-1.54-.49l-.45-1.05c-.36-.85-.04-1.42.89-1.42ZM36.37,51.58c11.04,1.29,11.85,7.28,9.06,7.4-.61,0-.93-.28-1.34-.73-1.86-1.98-5.14-4.21-7.89-5.7-.77-.4-1.13-.69-1.01-.85.12-.16.48-.2,1.17-.12Z"/>
      <path class="cls-1" d="M52.77,57.83c2.44-6.13,2.52-13.63,2.52-20.72v-12.42c0-.88.56-1.28,1.4-.92l2,.84h4.65l.64-.84c.48-.64,1.08-.72,1.72-.2l1.24,1c.68.56.92,1.2.48,1.4-.24.12-.52.2-.8.28v26.73c0,2.08-.32,3.45-2.93,3.97-.8.2-1.24-.24-1.44-1-.12-.44-.28-.8-.52-1.04-.32-.36-.8-.68-1.6-.92-.72-.2-1.12-.32-1.12-.52s.44-.28,1.28-.2c1.16.08,2.2.16,2.61.16.6,0,.72-.28.72-.84v-8.38h-5.65c-.32,4.93-1.36,10.1-4.37,14.19-.44.56-.8.8-1,.68-.2-.12-.16-.52.16-1.24ZM63.64,34.78h-5.41v2.28c0,1.88,0,3.89-.16,5.93h5.57v-8.22ZM63.64,33.62v-7.86h-5.41v7.86h5.41ZM65.88,57.87c3.73-5.57,4.21-12.54,4.21-19.76v-13.15c0-.88.56-1.28,1.4-.92l2.08.92h4.77l.88-1.08c.48-.6,1.08-.68,1.68-.12l1.36,1.24c.64.6.84,1.28.32,1.48-.24.08-.52.12-.88.2v26.61c0,.6.12.84.68.84h1.04c.52,0,.88,0,1.12-.04.2,0,.32-.08.44-.52.24-.64.68-3.41,1.08-5.89,0-.08.04-.12.04-.2.12-.72.32-1.08.44-1.08s.2.4.24,1.2l.16,6.29c.88.4,1.04.76,1.04,1.4,0,1.24-1.16,1.92-4.65,1.92h-1.8c-2.4,0-2.81-.88-2.81-2.97v-28.13h-5.69v11.98c0,7.01-.48,14.91-6.49,20.44-.48.48-.88.64-1.08.52s-.04-.52.4-1.2Z"/>
      <path class="cls-1" d="M90.05,58.71c8.99-2.71,12.22-5.87,13.52-10.16h-13.03c-.69,0-1.09-.24-1.21-.61-.08-.36.4-.57,1.25-.57h13.28c.2-1.09.28-2.31.36-3.56.08-.81.53-1.21,1.3-1.13l1.82.16c.97.08,1.7.61,1.3.93-.2.16-.49.28-.85.32-.12,1.13-.24,2.23-.49,3.28h11.29l1.3-1.7c.49-.65,1.05-.73,1.7-.24.65.57,1.38,1.13,1.98,1.7.57.49.85,1.05.45,1.3-.16.08-.36.12-.65.12h-14.85c2.79,4.7,8.1,6.72,15.06,7.53.81.08,1.21.2,1.21.32-.04.2-.36.28-.89.65-.53.32-.97.85-1.25,1.46-.32.73-.73,1.05-1.46.89-6.88-1.7-11.25-4.61-13.56-10.85h-.57c-1.25,5.02-4.7,8.62-16.84,11.05-.77.16-1.21.16-1.3-.12-.08-.24.28-.53,1.13-.77ZM91.43,40.82h13.4v-4.82h-9.79c-.69,0-1.09-.24-1.21-.61-.08-.36.41-.57,1.25-.57h9.75v-4.57h-11.78c-.73,0-1.13-.24-1.21-.61s.41-.57,1.25-.57h16.35c.81-1.66,1.7-3.8,2.35-5.63.28-.73.77-1.01,1.54-.73l1.62.57c.93.32,1.58.97,1.09,1.17-.2.08-.48.12-.85.08-1.09,1.38-2.83,3.08-4.57,4.53h6.31l1.21-1.66c.48-.65,1.09-.73,1.74-.2l1.86,1.62c.57.53.85,1.05.44,1.3-.16.08-.4.12-.65.12h-13.44v4.57h7.04l1.13-1.54c.49-.61,1.09-.69,1.74-.2.57.49,1.13,1.01,1.66,1.46.61.53.89,1.09.49,1.34-.16.08-.4.12-.65.12h-11.41v4.82h9.92l1.25-1.7c.49-.61,1.09-.69,1.74-.16l1.86,1.58c.61.53.85,1.09.49,1.34-.2.08-.45.12-.69.12h-31.29c-.69,0-1.09-.24-1.21-.61-.08-.36.4-.57,1.25-.57ZM98.83,22.89c6.48,1.94,4.94,6.88,2.43,6.11-.61-.2-.77-.65-.97-1.25-.36-1.38-1.13-2.75-1.98-3.89-.49-.65-.73-.97-.61-1.09.16-.12.49-.08,1.13.12Z"/>
      <g>
        <path class="cls-1" d="M11.58,97.4l-.86-10.99H1.18c-.66,0-1.05-.23-1.17-.58-.08-.35.39-.55,1.21-.55h9.43l-.74-10.09H1.18c-.66,0-1.05-.23-1.17-.58-.08-.35.39-.55,1.21-.55h8.61l-.47-6.27c-.08-.82.35-1.21,1.13-1.17l1.79.12c.94.08,1.68.62,1.21.97-.23.16-.55.23-.97.31l.47,6.04h6.16l1.32-1.79c.47-.62,1.05-.66,1.64-.16.58.51,1.29,1.05,1.99,1.68.58.51.86,1.05.51,1.29-.19.08-.39.12-.66.12h-10.87l.78,10.09h5.3l1.32-1.79c.47-.62,1.05-.66,1.64-.16.58.51,1.29,1.05,1.99,1.68.58.51.86,1.05.51,1.29-.19.08-.39.12-.66.12h-9.97l.82,10.71c.04.47-1.21,1.29-2.49,1.4l-.31.04c-.19.04-.35-.43-.39-1.17Z"/>
        <path class="cls-1" d="M31.91,84.95l-3.04.12c-.7.04-1.09-.12-1.17-.47-.08-.27.39-.51,1.21-.55l2.88-.12-.62-5.69c-.08-.82.31-1.25,1.09-1.25h1.01c.94,0,1.75.43,1.36.74-.19.12-.43.23-.78.35l.66,5.73,11.18-.51.66-.78c.47-.58,1.05-.66,1.64-.23l.9.66c.74.55,1.01,1.17.58,1.36-.19.12-.47.23-.78.27-1.75,5.03-4.68,8.53-8.69,10.48-.66.31-1.09.31-1.21.08-.12-.23.16-.51.74-.97,3.23-2.34,5.34-5.65,6.23-9.9l-11.18.51,1.99,17.45c.08.62-.31,1.6-1.79,2.1-.43.12-.66,0-.7-.31l-2.18-19.09Z"/>
        <path class="cls-1" d="M54.75,97.92c-.08-.23.27-.51,1.05-.74,8.96-2.77,14.34-7.95,16.09-15.51h-18.04c-.66,0-1.09-.16-1.21-.58-.08-.35.39-.58,1.21-.58h17.65l.86-1.01c.47-.58,1.05-.62,1.64-.16l1.6,1.21c.7.55.9,1.21.35,1.44-.23.08-.55.19-.9.23-1.75,8.69-8.1,13.99-19.09,15.93-.7.12-1.09,0-1.21-.23ZM54.63,71.15h14.03l1.32-1.79c.47-.62,1.05-.66,1.64-.16.58.51,1.29,1.05,1.99,1.68.58.51.86,1.05.51,1.29-.19.08-.39.12-.66.12h-18.86c-.66,0-1.05-.23-1.17-.58-.08-.35.39-.55,1.21-.55Z"/>
        <path class="cls-1" d="M79.05,86.94c0-1,.61-1.39,1.52-.96l2.18,1h7.54v-19.57c0-.87.48-1.35,1.35-1.26l1.92.17c1,.09,1.79.7,1.31,1.09-.22.17-.52.26-1,.35v7.58h10.33l1.66-2.22c.52-.7,1.18-.78,1.83-.22.83.7,1.7,1.48,2.48,2.18.61.57.92,1.22.48,1.44-.17.09-.44.13-.74.13h-16.04v10.33h8.58l.91-1.18c.52-.7,1.18-.7,1.83-.17l1.74,1.39c.74.61.96,1.26.39,1.57-.26.13-.57.26-.96.35v15.03c0,.61-.13,1.09-.74,1.35-.61.26-1.57.57-2.27.57-.3,0-.52-.48-.52-1.31v-2.22h-20.26v2.53c0,.35-1.53,1.18-2.96,1.18-.35,0-.57-.48-.57-1.31v-17.82ZM82.58,101.1h20.26v-12.9h-20.26v12.9Z"/>
        <path class="cls-1" d="M116.04,76.47c0-.71.43-1.09,1.11-1.03l1.5.12c.86.05,1.53.58,1.09.86-.17.12-.45.21-.84.3-.25,9.38.33,16.08,1.75,20.05.38,1.04,1.11,1.36,2.16.97.77-.3,1.69-.96,2.7-1.94.6-.61,1.05-.92,1.13-.67.09.24,0,.57-.33,1.05-1.61,2.23-3.09,3.64-4.44,4.26-1.52.7-2.69.2-3.54-1.49-1.53-3.47-2.27-10.94-2.29-22.48ZM130.65,74.81c.24-.09.57.04.99.47,5.03,5.5,6.12,17.01,6.1,19.5-.08,1.68-.78,2.43-1.92,2.36-.68-.07-1.25-.57-1.26-1.42-.12-4.87-.8-11.38-3.9-19.74-.26-.7-.24-1.09,0-1.18Z"/>
      </g>
      <path class="cls-1" d="M88.69,10.96h8.79v-.65c0-.32.18-.5.5-.47l.5.05c.4.05.73.26.57.37-.06.05-.18.08-.32.11v.58h1.42l.42-.57c.19-.26.44-.29.68-.1.23.18.45.39.66.57.21.21.31.42.16.52-.06.03-.16.05-.26.05h-3.09v1.78c0,.87-.18,1.41-1.5,1.63-.31.05-.47-.1-.58-.37-.08-.18-.16-.31-.31-.42-.23-.16-.55-.27-1.12-.39-.31-.06-.45-.13-.45-.19s.18-.1.5-.08c.84.05,1.65.1,1.87.1.28,0,.34-.08.34-.32v-1.73h-8.82c-.28,0-.44-.1-.48-.24-.05-.15.16-.23.52-.23ZM88.73,4.47h1.34l.36-.53c.18-.27.42-.31.68-.08l.65.55c.27.24.32.52.08.61-.11.03-.26.06-.42.1v2.51c.89.99,2.02,1.1,3.96,1.1,1.39,0,4.72,0,6.48-.03.31-.02.48.03.48.1s-.15.1-.36.29c-.08.08-.15.16-.19.27-.11.27-.24.42-.53.42h-5.88c-2.08,0-3.23-.39-4.15-1.91l-.36.32c-.47.42-1.05.95-1.74,1.54,0,0-.44.23-.6-.1l-.23-.44c-.15-.31-.05-.53.26-.65.45-.16,1.05-.39,1.71-.65v-2.97h-1.55c-.29,0-.45-.06-.48-.23-.03-.13.16-.23.5-.23ZM89.57.48c2.8.57,2.39,2.63,1.37,2.44-.24-.05-.34-.23-.44-.45-.23-.57-.63-1.13-1.08-1.57-.23-.24-.36-.37-.31-.42.05-.05.19-.05.45,0ZM91.75,11.7c3.04.31,2.75,2.49,1.66,2.34-.24-.05-.36-.21-.47-.42-.28-.55-.81-1.12-1.33-1.52-.24-.19-.37-.32-.32-.37.05-.05.18-.06.45-.03ZM92.59,1.79h2.41l-.06-.03c-.06-.44-.32-.92-.63-1.29-.23-.24-.34-.37-.29-.42s.19-.06.45-.02c1.73.27,1.78,1.41,1.29,1.76h2c.16-.4.36-.94.5-1.41.1-.29.31-.42.6-.34l.6.15c.39.1.68.37.5.45-.1.03-.21.05-.36.05-.34.36-.86.76-1.36,1.1h1.96l.42-.55c.19-.24.42-.27.68-.08.21.18.42.36.61.53.24.19.36.42.19.52-.06.03-.15.05-.26.05h-4.38c-.23.34-.5.71-.78,1.02h2.62l.31-.34c.19-.23.44-.26.68-.06l.5.39c.28.23.37.48.18.57-.1.05-.21.08-.32.11v3.98c-.02.11-.6.4-1,.4-.13,0-.21-.11-.21-.31v-.29h-4.82v.23c0,.13-.53.4-1,.4-.11,0-.18-.18-.18-.48V3.34c0-.37.23-.53.57-.37l.68.31h1.24c.06-.31.15-.69.23-1.02h-3.57c-.27,0-.45-.08-.5-.24-.03-.15.16-.23.5-.23ZM94.63,4.6h4.82v-.86h-4.82v.86ZM99.44,5.93v-.86h-4.82v.86h4.82ZM99.44,7.25v-.87h-4.82v.87h4.82Z"/>
      <path class="cls-1" d="M80.55,4.42c-.05.12-.14.34-.26.63-.03.34.25.35.53.19.34-.19.57-.38.8-.38.3,0,.41.15.42.38,0,.22-.2.46-.54.65-.39.22-1.2.48-1.93.65-.42.82-.86,1.62-1.31,2.29-.07.11-.03.14.07.07.41-.29.9-.54,1.43-.54.69,0,1.14.3,1.29.88.84-1.58,2-2.45,3.14-2.45,1.85,0,2.23,1.9.53,2.57-1.28.5-2.6.9-3.58,1.32,0,.04-.01.1-.01.14,0,.6.01,1.31.01,1.58,0,.44-.19.63-.53.63-.3,0-.45-.22-.45-.63,0-.2.03-.71.05-1.22-.69.44-1.37,1.07-1.37,1.77s.73.84,1.88.84c.95,0,2.08-.3,2.45-.3s.61.15.61.42c0,.31-.2.49-.58.61-.49.15-1.46.26-2.38.26-1.78,0-2.83-.56-2.83-1.59,0-.87.78-1.88,2.27-2.79,0-.16.01-.34.01-.48,0-.78-.19-.97-.71-.97-.68,0-1.63.78-2.34,1.66-.38.48-.73,1.01-1.09,1.01-.27,0-.49-.29-.49-.64,0-.44.98-1.21,1.33-1.62.64-.75,1.24-1.69,1.71-2.65-.57.07-1.2.07-1.56.03-.69-.1-1.1-.78-1.18-1.4-.03-.23.18-.34.37-.18.34.3.71.58,1.13.67.44.08.98.08,1.65,0,.52-1.25.41-1.41-.16-1.73-.22-.12-.19-.34.04-.41.2-.07.39-.1.6-.1.33,0,.68.11.93.27.16.11.16.3.05.56ZM81.48,9.78c.67-.29,1.65-.68,2.59-1.14.97-.48.87-1.22-.03-1.22s-1.97,1.13-2.56,2.37Z"/>
      <path class="cls-1" d="M105.92,9c0,.24.09.42.33.68.75.77,2.21,2.19,2.72,3.15.28.53.38.83.38,1.25s-.26.7-.6.7-.55-.37-.83-1.1c-.52-1.36-1.52-2.68-2.23-3.46-.41-.45-.57-.77-.57-1.1,0-.41.24-.93.83-1.74.91-1.25,1.76-2.32,1.76-2.82,0-.29-.15-.37-.33-.64-.13-.19-.01-.36.22-.33.56.08,1.08.42,1.34.75.19.25.17.45-.11.87-.52.79-1.86,2-2.59,3.02-.22.3-.31.58-.31.76Z"/>
    </g>
  </g>
</svg>