<svg width="568" height="398" viewBox="0 0 568 398" fill="none" xmlns="http://www.w3.org/2000/svg">
<g filter="url(#filter0_di_99_2)">
<path d="M183.332 64.3383C194.457 77.7133 208.895 88.1351 226.645 95.6039C224.488 97.0726 222.66 99.0883 221.16 101.651C210.223 95.7445 201.379 89.5883 194.629 83.182C190.066 78.9008 185.566 73.7914 181.129 67.8539C175.473 76.5414 169.191 83.8851 162.285 89.8851C155.848 95.4789 148.145 100.463 139.176 104.838L136.598 101.463C145.848 96.682 153.754 91.0101 160.316 84.4476C167.41 77.3226 173.488 68.5883 178.551 58.2445C184.551 59.4008 187.551 60.6664 187.551 62.0414C187.551 62.9164 186.176 63.6039 183.426 64.1039L183.332 64.3383ZM188.535 92.3695L193.129 87.6351C195.629 89.7601 197.91 91.9164 199.973 94.1039L198.238 97.057H163.691L162.145 92.3695H188.535ZM199.363 108.87L202.645 105.12C207.113 108.995 209.348 111.495 209.348 112.62C209.348 113.088 209.035 113.463 208.41 113.745L205.645 115.01C201.332 125.448 195.629 136.323 188.535 147.635L182.582 145.057C189.113 135.213 194.645 124.776 199.176 113.745H151.973L150.52 108.87H199.363ZM264.557 137.276V144.682H258.229V64.807L259.26 65.1351C261.323 65.8226 263.292 66.5101 265.167 67.1976H307.87L311.479 63.2601C316.104 66.9476 318.417 69.3539 318.417 70.4789C318.417 71.0101 318.088 71.4789 317.432 71.8851L314.854 73.5258V143.698H308.526V137.276H264.557ZM264.557 98.7914H308.526V72.1664H264.557V98.7914ZM264.557 103.901V132.166H308.526V103.901H264.557ZM386.29 136.01C393.738 134.578 399.623 132.013 403.946 128.315C407.488 125.294 409.753 121.635 410.743 117.338C411.29 115.021 411.563 112.364 411.563 109.37C411.563 103.797 410.092 98.8096 407.149 94.4086C405.196 91.5179 402.644 89.2133 399.493 87.4945C395.951 85.5414 391.98 84.5648 387.579 84.5648C386.459 84.5648 385.418 84.6429 384.454 84.7992C385.47 87.2732 385.977 89.8773 385.977 92.6117C385.977 99.9554 383.985 107.716 380.001 115.893C376.433 123.263 372.371 128.653 367.813 132.065C365.678 133.679 363.451 134.487 361.134 134.487C357.905 134.487 355.391 132.677 353.595 129.057C351.98 125.828 351.173 121.87 351.173 117.182C351.173 111.635 352.67 106.049 355.665 100.424C358.165 95.7107 361.485 91.8044 365.626 88.7054C372.527 83.5492 380.001 80.9711 388.048 80.9711C395.912 80.9711 402.566 83.1586 408.009 87.5336C410.405 89.4346 412.423 91.7523 414.063 94.4867C416.824 99.0179 418.204 103.914 418.204 109.174C418.204 119.487 414.506 127.182 407.11 132.26C402.449 135.463 395.99 137.729 387.735 139.057L386.29 136.01ZM380.86 85.3851C374.74 86.9216 369.623 90.0075 365.509 94.6429C359.858 100.997 357.032 108.627 357.032 117.534C357.032 121.127 357.488 123.888 358.399 125.815C359.311 127.69 360.47 128.627 361.876 128.627C363.543 128.627 365.704 127.104 368.36 124.057C371.147 120.854 373.829 116.479 376.407 110.932C379.949 103.224 381.72 96.6091 381.72 91.0883C381.72 89.1872 381.433 87.2862 380.86 85.3851ZM197.679 197.416C191.742 202.073 184.742 205.979 176.679 209.135L174.476 205.901C182.07 202.526 188.648 198.323 194.21 193.291C189.992 186.979 186.96 180.073 185.117 172.573H153.054V182.182H170.117L173.023 178.62C177.117 181.682 179.163 183.807 179.163 184.995C179.163 185.37 178.945 185.713 178.507 186.026L176.398 187.432C176.335 196.838 175.038 202.698 172.507 205.01C170.851 206.51 168.648 207.245 165.898 207.213C165.773 205.745 164.929 204.776 163.367 204.307C162.21 203.963 159.82 203.526 156.195 202.995V199.666C158.913 200.041 161.96 200.229 165.335 200.229C167.242 200.229 168.507 199.651 169.132 198.495C170.195 196.557 170.757 192.557 170.82 186.495H152.96C152.742 192.276 151.898 197.323 150.429 201.635C148.554 207.073 145.304 212.104 140.679 216.729L137.867 214.057C142.21 208.307 144.96 202.166 146.117 195.635C146.773 191.854 147.101 187.526 147.101 182.651V165.213C149.07 165.838 151.398 166.745 154.085 167.932L154.367 168.073H184.132C183.413 164.041 182.976 159.401 182.82 154.151C189.101 154.432 192.242 155.198 192.242 156.448C192.242 157.166 191.085 158.01 188.773 158.979C189.054 161.698 189.445 164.635 189.945 167.791H212.679L216.898 162.682C219.804 165.213 221.945 167.495 223.32 169.526L221.96 172.291H190.882C192.695 179.104 195.179 184.854 198.335 189.541C202.117 185.885 205.804 181.198 209.398 175.479C213.992 178.073 216.288 180.026 216.288 181.338C216.288 182.213 215.32 182.651 213.382 182.651C212.945 182.651 212.382 182.62 211.695 182.557C209.101 186.182 205.742 189.838 201.617 193.526C205.117 197.088 208.71 199.76 212.398 201.541C213.585 202.135 214.398 202.432 214.835 202.432C216.679 202.432 218.523 198.104 220.367 189.448L223.695 191.276C222.82 195.995 222.382 199.323 222.382 201.26C222.382 202.979 222.757 204.151 223.507 204.776C223.913 205.12 224.554 205.385 225.429 205.573C225.054 208.854 223.538 210.495 220.882 210.495C218.288 210.495 214.835 209.416 210.523 207.26C206.023 205.01 201.742 201.729 197.679 197.416ZM158.538 211.995H205.835L208.32 209.51C212.632 212.448 214.788 214.385 214.788 215.323C214.788 215.76 214.523 216.151 213.992 216.495L212.07 217.76V236.276H217.226L221.679 230.229C223.648 232.385 225.538 234.948 227.351 237.916L225.898 240.87H139.038L137.773 236.276H151.601V209.604C152.101 209.791 153.82 210.385 156.757 211.385L157.554 211.666L158.538 211.995ZM157.554 216.495V236.276H169.554V216.495H157.554ZM175.32 216.495V236.276H187.695V216.495H175.32ZM193.179 216.495V236.276H206.117V216.495H193.179ZM197.867 154.245C206.21 156.776 210.382 159.416 210.382 162.166C210.382 163.073 209.96 163.948 209.117 164.791C208.023 165.885 207.054 166.432 206.21 166.432C205.335 166.432 204.57 165.76 203.913 164.416C202.476 161.448 199.913 158.963 196.226 156.963L197.867 154.245ZM257.974 224.823L263.912 229.041C263.912 221.958 264.042 214.901 264.302 207.87C257.61 216.802 252.532 224.08 249.068 229.705C248.287 230.981 247.571 231.62 246.92 231.62C246.138 231.62 245.5 231.086 245.006 230.018C244.485 228.846 244.224 227.713 244.224 226.62C244.224 225.526 244.667 224.562 245.552 223.729C247.662 221.802 253.964 214.159 264.459 200.799V200.33C264.511 198.82 264.537 197.453 264.537 196.229C264.563 195.057 264.589 194.002 264.615 193.065C260.214 195.122 257.18 196.633 255.513 197.596C254.446 198.195 253.495 198.495 252.662 198.495C251.125 198.495 249.966 197.765 249.185 196.307C248.795 195.604 248.378 194.354 247.935 192.557C247.805 192.088 247.688 191.672 247.584 191.307L249.888 189.276C250.722 191.411 251.907 192.479 253.443 192.479C255.136 192.479 258.86 191.281 264.615 188.885C264.589 183.416 264.511 180.148 264.381 179.08C263.99 176.19 262.362 174.575 259.498 174.237L260.865 171.541C263.313 171.567 265.709 172.023 268.052 172.909C269.98 173.638 270.943 174.94 270.943 176.815C270.943 177.336 270.735 178.273 270.318 179.627C269.745 181.424 269.237 184.172 268.795 187.87C269.732 188 270.631 188.599 271.49 189.666C272.506 190.916 273.013 192.023 273.013 192.987C273.013 193.534 272.662 194.224 271.959 195.057C270.552 196.724 269.25 198.534 268.052 200.487L267.896 202.088C273.573 196.672 278.287 192.622 282.037 189.94C287.558 185.929 292.232 183.924 296.06 183.924C299.211 183.924 301.516 185.07 302.974 187.362C304.12 189.133 304.693 191.971 304.693 195.877C304.693 198.846 304.276 203.442 303.443 209.666C302.792 214.692 302.466 218.664 302.466 221.58C302.466 226.086 303.534 228.338 305.67 228.338C308.065 228.338 310.344 226.203 312.506 221.932C313.808 219.328 314.94 215.669 315.904 210.955L318.638 212.557C317.961 218.13 316.841 222.557 315.279 225.838C312.675 231.281 309.315 234.002 305.201 234.002C299.758 234.002 297.037 229.432 297.037 220.291C297.037 217.401 297.297 212.935 297.818 206.893C298.287 201.528 298.521 197.518 298.521 194.862C298.521 192.83 298.326 191.346 297.935 190.409C297.44 189.133 296.477 188.495 295.045 188.495C292.388 188.495 288.795 190.044 284.263 193.143C279.107 196.659 273.677 201.294 267.974 207.049C268 212.596 268.274 219.875 268.795 228.885V229.159C268.951 231.086 269.029 232.192 269.029 232.479C269.029 234.12 268.521 235.786 267.506 237.479C266.698 238.859 265.761 239.549 264.693 239.549C263.469 239.549 262.701 238.508 262.388 236.424C261.972 233.612 259.914 230.539 256.216 227.205L257.974 224.823ZM344.591 207.916C344.154 215.666 343.045 222.51 341.263 228.448C339.701 233.604 337.373 238.541 334.279 243.26L331.091 241.338C334.498 234.213 336.748 226.229 337.841 217.385C338.529 211.76 338.873 205.541 338.873 198.729V157.057C339.341 157.213 339.685 157.323 339.904 157.385C341.06 157.791 342.42 158.291 343.982 158.885L345.154 159.354H358.466L361.607 155.51C365.388 158.729 367.279 160.854 367.279 161.885C367.279 162.354 367.029 162.791 366.529 163.198L364.607 164.698V235.854C364.607 239.291 363.451 241.416 361.138 242.229C359.638 242.729 357.654 242.979 355.185 242.979C355.123 241.354 354.31 240.26 352.748 239.698C351.623 239.291 349.326 238.854 345.857 238.385V234.823C349.513 235.166 352.81 235.338 355.748 235.338C357.31 235.338 358.248 235.041 358.56 234.448C358.748 234.041 358.841 233.495 358.841 232.807V207.916H344.591ZM344.826 180.87H358.841V163.854H344.826V180.87ZM344.826 185.37V198.635C344.826 199.729 344.81 201.12 344.779 202.807L344.732 203.323H358.841V185.37H344.826ZM382.466 166.432V191.51C382.466 204.041 381.404 214.401 379.279 222.588C377.31 230.213 374.013 237.104 369.388 243.26L366.154 240.682C370.31 233.713 373.138 225.604 374.638 216.354C375.763 209.416 376.326 201.104 376.326 191.416V159.448C378.232 159.948 380.638 160.776 383.545 161.932H397.045L400.185 158.088C404.404 161.401 406.513 163.588 406.513 164.651C406.513 165.182 406.232 165.651 405.67 166.057L403.466 167.698V233.182C403.466 234.245 403.779 234.916 404.404 235.198C405.091 235.51 406.357 235.666 408.201 235.666C410.92 235.666 412.529 235.166 413.029 234.166C413.31 233.635 413.576 232.698 413.826 231.354C414.638 226.885 415.154 221.541 415.373 215.323L419.123 216.682C419.029 220.995 418.982 223.995 418.982 225.682C418.982 229.432 419.17 231.885 419.545 233.041C419.92 234.104 420.623 234.635 421.654 234.635C421.716 234.635 421.826 234.635 421.982 234.635C421.951 237.823 420.841 239.776 418.654 240.495C417.279 240.932 414.56 241.151 410.498 241.151C404.591 241.151 400.966 240.745 399.623 239.932C398.279 239.088 397.607 237.12 397.607 234.026V166.432H382.466ZM103.126 277.995V268.995C103.126 265.651 102.548 263.291 101.392 261.916C100.36 260.666 98.704 259.979 96.4228 259.854L98.2509 256.385C106.251 256.51 110.251 258.604 110.251 262.666C110.251 263.198 110.032 264.245 109.595 265.807C109.001 267.87 108.642 271.557 108.517 276.87C112.048 276.088 114.86 274.87 116.954 273.213C118.673 271.87 120.157 271.198 121.407 271.198C122.407 271.198 123.454 271.526 124.548 272.182C125.829 272.932 126.47 273.823 126.47 274.854C126.47 276.26 125.313 277.479 123.001 278.51C118.907 280.291 114.079 281.666 108.517 282.635V298.948C116.423 295.916 124.376 294.401 132.376 294.401C138.876 294.401 144.329 295.901 148.735 298.901C153.673 302.276 156.142 306.807 156.142 312.495C156.142 317.932 154.563 322.088 151.407 324.963C148.313 327.807 143.907 329.807 138.188 330.963C134.22 331.807 128.813 332.229 121.97 332.229L120.892 328.01C129.798 327.76 136.407 326.62 140.72 324.588C145.876 322.151 148.454 318.026 148.454 312.213C148.454 308.088 146.688 304.776 143.157 302.276C139.813 299.901 135.735 298.713 130.923 298.713C124.329 298.713 116.86 300.479 108.517 304.01V323.979C108.517 330.635 105.813 333.963 100.407 333.963C97.0946 333.963 93.5634 332.26 89.8134 328.854C85.5634 325.041 83.4384 321.432 83.4384 318.026C83.4384 312.713 89.9384 307.12 102.938 301.245V299.838L102.985 294.916C103.048 288.666 103.095 284.823 103.126 283.385C101.188 283.698 98.7821 283.854 95.9071 283.854C92.0946 283.854 89.0946 283.12 86.9071 281.651C85.3134 280.588 83.9696 278.995 82.8759 276.87L85.5478 274.057C87.4228 277.182 90.5009 278.745 94.7821 278.745C97.9071 278.745 100.688 278.495 103.126 277.995ZM102.845 306.823C93.8134 311.573 89.2978 315.495 89.2978 318.588C89.2978 320.307 90.3603 322.088 92.4853 323.932C95.0478 326.151 97.454 327.26 99.704 327.26C101.235 327.26 102.126 326.166 102.376 323.979C102.626 321.604 102.767 317.01 102.798 310.198V308.229L102.845 306.823ZM138.095 261.401C146.282 263.213 152.579 266.526 156.985 271.338C159.485 274.057 160.735 276.604 160.735 278.979C160.735 280.479 160.345 281.666 159.563 282.541C158.72 283.479 157.657 283.948 156.376 283.948C154.501 283.948 153.204 282.854 152.485 280.666C149.829 272.354 144.282 266.963 135.845 264.495L138.095 261.401ZM203.382 259.76C204.101 262.198 205.492 263.416 207.554 263.416C211.867 263.416 217.163 262.479 223.445 260.604C225.663 259.948 227.117 259.338 227.804 258.776C228.554 258.213 229.304 257.932 230.054 257.932C231.148 257.932 232.413 258.963 233.851 261.026C235.351 263.151 236.101 264.901 236.101 266.276C236.101 267.12 235.554 267.916 234.46 268.666C233.46 269.385 232.648 270.448 232.023 271.854C229.273 278.104 226.226 284.729 222.882 291.729C231.57 292.885 240.554 295.604 249.835 299.885C250.617 295.573 251.007 291.666 251.007 288.166C251.007 285.573 250.32 283.87 248.945 283.057C248.288 282.651 247.398 282.338 246.273 282.12L247.726 279.166C251.07 279.198 253.835 279.791 256.023 280.948C257.867 281.916 258.788 283.182 258.788 284.745C258.788 285.432 258.632 286.416 258.32 287.698C258.195 288.229 258.023 289.635 257.804 291.916C257.429 296.041 256.851 299.76 256.07 303.073C261.413 305.885 265.476 308.37 268.257 310.526C270.32 312.12 271.351 313.995 271.351 316.151C271.351 317.62 270.945 318.729 270.132 319.479C269.601 319.979 269.007 320.229 268.351 320.229C267.601 320.229 266.71 319.776 265.679 318.87C261.773 315.463 257.898 312.463 254.054 309.87C249.617 322.151 240.57 330.541 226.913 335.041L224.617 332.041C233.304 328.448 239.663 323.432 243.695 316.995C245.632 313.932 247.163 310.338 248.288 306.213C238.132 300.713 228.82 297.479 220.351 296.51C216.101 305.166 210.773 313.385 204.367 321.166C200.71 325.604 197.023 327.823 193.304 327.823C191.179 327.823 189.32 326.698 187.726 324.448C186.195 322.291 185.429 319.51 185.429 316.104C185.429 308.729 188.32 302.745 194.101 298.151C199.726 293.713 207.242 291.416 216.648 291.26C220.804 282.416 224.351 273.354 227.288 264.073C218.32 266.354 212.492 268.448 209.804 270.354C208.648 271.166 207.523 271.573 206.429 271.573C204.492 271.573 202.976 270.416 201.882 268.104C201.07 266.416 200.617 264.245 200.523 261.588L203.382 259.76ZM214.117 296.229C209.554 296.229 205.382 297.245 201.601 299.276C194.913 302.87 191.57 308.604 191.57 316.479C191.57 318.479 192.085 319.979 193.117 320.979C193.585 321.448 194.132 321.682 194.757 321.682C196.57 321.682 199.242 319.385 202.773 314.791C206.835 309.479 210.617 303.291 214.117 296.229ZM340.482 253.62C343.263 254.182 345.529 255.307 347.279 256.995C348.81 258.495 349.576 260.166 349.576 262.01C349.576 263.448 348.81 264.823 347.279 266.135C346.279 267.041 344.138 268.338 340.857 270.026C328.013 276.588 318.638 282.995 312.732 289.245C311.076 291.026 310.248 292.416 310.248 293.416C310.248 294.291 310.638 295.026 311.42 295.62C311.701 295.838 312.435 296.307 313.623 297.026C323.06 302.713 331.623 308.776 339.31 315.213C347.842 322.37 352.107 328.291 352.107 332.979C352.107 334.26 351.763 335.463 351.076 336.588C350.388 337.651 349.435 338.182 348.217 338.182C346.592 338.182 345.263 337.12 344.232 334.995C340.888 328.12 336.295 321.995 330.451 316.62C324.701 311.338 317.607 305.979 309.17 300.541C306.357 298.729 304.951 296.51 304.951 293.885C304.951 291.135 306.826 287.979 310.576 284.416C313.826 281.323 321.17 275.541 332.607 267.073C337.982 263.104 340.67 260.604 340.67 259.573C340.67 258.291 339.576 257.245 337.388 256.432L340.482 253.62ZM473.035 300.401C463.504 323.495 450.582 335.041 434.27 335.041C429.301 335.041 424.957 333.573 421.238 330.635C417.613 327.76 415.16 323.932 413.879 319.151C413.004 315.932 412.566 311.604 412.566 306.166C412.566 298.604 413.348 285.885 414.91 268.01C414.973 267.135 415.004 266.495 415.004 266.088C415.004 263.62 414.207 261.791 412.613 260.604C411.77 259.979 410.629 259.416 409.191 258.916L411.582 255.635C414.707 256.01 417.363 256.916 419.551 258.354C422.238 260.073 423.582 262.37 423.582 265.245C423.582 266.057 423.238 267.854 422.551 270.635C421.895 273.198 421.16 277.354 420.348 283.104C418.941 292.948 418.238 300.995 418.238 307.245C418.238 321.245 423.66 328.245 434.504 328.245C442.379 328.245 449.457 325.198 455.738 319.104C461.332 313.729 465.91 306.823 469.473 298.385L473.035 300.401ZM448.66 265.901C452.16 267.151 455.02 268.713 457.238 270.588C459.895 272.838 461.223 275.166 461.223 277.573C461.223 278.916 460.801 279.932 459.957 280.62C459.363 281.057 458.723 281.276 458.035 281.276C456.723 281.276 455.801 280.729 455.27 279.635C455.176 279.448 454.988 278.901 454.707 277.995C453.457 273.932 450.77 270.713 446.645 268.338L448.66 265.901ZM457.66 258.916C461.098 260.104 463.973 261.651 466.285 263.557C468.941 265.776 470.27 268.104 470.27 270.541C470.27 271.916 469.848 272.932 469.004 273.588C468.41 274.026 467.77 274.245 467.082 274.245C465.77 274.245 464.848 273.698 464.316 272.604C464.223 272.416 464.035 271.87 463.754 270.963C462.473 266.932 459.77 263.713 455.645 261.307L457.66 258.916Z" fill="#966C56" shape-rendering="crispEdges"/>
</g>
<path d="M130.949 27.7548C131.678 28.598 132.709 28.9067 134.041 28.6809C134.596 28.5869 135.1 28.4738 135.553 28.3416C135.55 27.4387 135.523 26.8331 135.471 26.525C135.385 26.0167 135.206 25.6665 134.936 25.4746C134.739 25.3415 134.412 25.3058 133.955 25.3674L134.225 24.5017C134.426 24.4279 134.619 24.3754 134.804 24.3441C135.312 24.2579 135.776 24.2823 136.195 24.4174C136.832 24.6186 137.188 24.9464 137.265 25.4009C137.298 25.5934 137.272 25.8157 137.188 26.0677C137.036 26.4816 136.952 27.0862 136.937 27.8812C137.745 27.6016 138.58 27.2224 139.442 26.7436C139.797 26.5487 140.059 26.2705 140.228 25.9092C140.398 25.5555 140.702 25.3415 141.141 25.2671C141.542 25.1992 141.881 25.2169 142.16 25.3202C142.498 25.4451 142.69 25.6386 142.734 25.9005C142.833 26.4859 141.744 27.2806 139.465 28.2847C138.698 28.6208 137.867 28.9319 136.973 29.2182C136.998 30.2045 137.077 31.2607 137.213 32.3867C138.397 31.8929 139.558 31.5179 140.695 31.2618C140.536 30.7421 140.262 30.3684 139.875 30.1408L140.511 29.617C141.283 29.8667 141.796 30.3463 142.051 31.0559C143.683 30.9615 145.072 31.1896 146.22 31.7401C147.848 32.5101 148.811 33.7733 149.108 35.5295C149.391 37.201 148.99 38.7587 147.903 40.2027C147.065 41.3353 145.876 42.2895 144.335 43.0656C143.803 43.3381 143.106 43.6424 142.244 43.9787L141.586 43.1154C142.784 42.6113 143.687 42.1413 144.295 41.7056C146.665 40.0282 147.665 38.0957 147.294 35.9082C147.033 34.3676 146.18 33.284 144.735 32.6573C143.998 32.3305 143.135 32.1716 142.146 32.1807C141.988 33.6338 141.445 35.2234 140.518 36.9495C140.059 37.7958 139.433 38.7101 138.641 39.6922C138.693 39.8577 138.809 40.1471 138.99 40.5601C139.122 40.8706 139.211 41.1606 139.256 41.4302C139.336 41.9001 139.268 42.2682 139.051 42.5347C138.94 42.6724 138.796 42.7563 138.618 42.7863C138.341 42.8333 138.085 42.6548 137.85 42.2509C137.708 42.0214 137.545 41.6647 137.36 41.181C135.773 42.7574 134.394 43.6448 133.223 43.8432C132.653 43.9397 132.152 43.8345 131.719 43.5274C131.187 43.1423 130.848 42.5222 130.703 41.6672C130.385 39.7877 130.901 37.9728 132.253 36.2224C133.193 34.9933 134.414 33.9426 135.914 33.0703C135.771 31.7555 135.674 30.603 135.626 29.6129C135.174 29.7528 134.628 29.877 133.989 29.9853C132.441 30.2476 131.239 29.7699 130.382 28.552L130.949 27.7548ZM136.058 34.3414C135.161 34.9847 134.389 35.7337 133.741 36.5883C132.519 38.2137 132.036 39.7813 132.291 41.2911C132.426 42.0844 132.851 42.4204 133.568 42.2991C134.43 42.1529 135.553 41.2733 136.936 39.6602C136.777 39.0531 136.639 38.3991 136.52 37.6982C136.374 36.8355 136.22 35.7165 136.058 34.3414ZM140.759 32.3444C139.477 32.633 138.338 33.04 137.341 33.5654C137.404 34.1727 137.497 34.8346 137.618 35.5509C137.804 36.6447 137.993 37.5079 138.188 38.1406C139.677 35.939 140.534 34.0069 140.759 32.3444ZM168.614 27.4593L169.574 27.8761C169.323 28.5364 169.258 29.284 169.38 30.1189C169.418 30.3818 169.509 30.7671 169.654 31.275C169.918 32.2157 170.151 33.0896 170.356 33.8967C171.78 34.1394 173.035 34.5174 174.121 35.0305C175.189 35.5382 175.767 36.0936 175.855 36.6966C175.939 37.2765 175.715 37.6052 175.181 37.6828C174.895 37.7244 174.491 37.5779 173.969 37.2434C172.749 36.4577 171.654 35.8788 170.685 35.5067C170.722 35.6591 170.756 35.8358 170.785 36.0368C170.945 37.1346 170.717 38.0086 170.101 38.6587C169.499 39.2989 168.596 39.7067 167.389 39.8821C166.207 40.0542 165.114 39.9526 164.112 39.5773C163.059 39.1779 162.463 38.4949 162.322 37.5286C162.186 36.5931 162.513 35.8034 163.304 35.1594C164.066 34.5354 165.166 34.1188 166.604 33.9096C167.284 33.8107 167.976 33.7691 168.681 33.785C168.568 33.2251 168.453 32.6735 168.334 32.1302C168.173 31.4037 168.074 30.9128 168.037 30.6577C167.847 29.3511 168.039 28.285 168.614 27.4593ZM168.952 35.072C168.099 34.967 167.283 34.9713 166.502 35.0849C165.605 35.2154 164.87 35.4764 164.295 35.8679C163.735 36.2494 163.493 36.703 163.569 37.2287C163.634 37.6771 163.921 38.0183 164.429 38.2523C165.087 38.5434 165.907 38.6176 166.889 38.4747C167.747 38.3499 168.358 38.103 168.723 37.7342C169.094 37.3565 169.217 36.7308 169.089 35.8572C169.068 35.7103 169.027 35.4834 168.967 35.1764L168.952 35.072ZM159.924 20.2326C160.136 20.1702 160.347 20.1238 160.555 20.0935C161.143 20.008 161.679 20.0602 162.165 20.2501C162.676 20.4521 162.965 20.7811 163.031 21.2373C163.06 21.4383 163.015 21.6975 162.895 22.0149C162.724 22.4661 162.573 22.9974 162.44 23.6087L162.377 23.9022L162.365 23.9868C163.057 23.6966 163.553 23.36 163.852 22.977C163.998 22.7821 164.252 22.6583 164.616 22.6054C165.195 22.5211 165.623 22.6128 165.899 22.8805C166.001 22.9841 166.061 23.1017 166.081 23.2331C166.167 23.8284 164.792 24.6086 161.957 25.5738L161.911 25.7463C160.968 29.144 159.913 32.0961 158.746 34.6027C158.295 35.5684 157.899 36.076 157.559 36.1255C156.987 36.2087 156.644 35.8599 156.53 35.0791C156.471 34.6693 156.581 34.2586 156.86 33.8468C158.267 31.7948 159.454 29.1827 160.421 26.0103C160.067 26.125 159.681 26.2128 159.264 26.2735C158.375 26.4028 157.647 26.339 157.081 26.0819C156.673 25.8885 156.283 25.5663 155.91 25.1154L156.425 24.3418C157.058 24.9522 157.851 25.1883 158.801 25.0499C159.559 24.9397 160.223 24.78 160.792 24.5708C161.05 23.3018 161.142 22.416 161.069 21.9135C160.979 21.295 160.517 21.0228 159.683 21.0967L159.924 20.2326ZM170.45 26.2447C170.975 25.892 171.596 25.6557 172.313 25.5356C172.514 25.5064 172.607 25.4376 172.591 25.3294C172.562 25.1284 172.399 24.9034 172.102 24.6545C171.365 24.0432 170.362 23.5734 169.09 23.2452L169.474 22.3841C172.76 22.9403 174.519 24.0108 174.749 25.5956C174.812 26.0286 174.725 26.4045 174.487 26.7233C174.348 26.9092 174.175 27.0174 173.966 27.0478C173.765 27.077 173.512 27.023 173.208 26.8857C172.719 26.6726 172.266 26.5964 171.848 26.6571C171.57 26.6976 171.283 26.7867 170.987 26.9245L170.45 26.2447ZM186.995 16.8288C187.324 16.6869 187.66 16.5955 188.001 16.5545C188.652 16.4762 189.249 16.6602 189.79 17.1066C190.061 17.3259 190.211 17.5597 190.241 17.8079C190.26 17.9708 190.215 18.2124 190.103 18.5326C190.028 18.7541 189.764 19.7025 189.312 21.3778L189.19 21.8293C189.81 21.621 190.273 21.4512 190.58 21.3199C191.058 21.1051 191.434 20.8278 191.708 20.488C191.927 20.2177 192.246 20.0574 192.665 20.007C193.138 19.9502 193.553 20.0302 193.909 20.247C194.113 20.372 194.226 20.5198 194.246 20.6905C194.292 21.0705 193.848 21.474 192.916 21.9008C191.798 22.4207 190.431 22.8958 188.815 23.3261C188.47 24.6501 188.072 26.2442 187.619 28.1084C187.311 29.4122 186.709 31.3377 185.811 33.8849C185.621 34.4034 185.483 34.7938 185.397 35.056C185.171 35.7284 184.992 36.1708 184.86 36.3834C184.696 36.6549 184.486 36.8061 184.23 36.8368C184.044 36.8592 183.885 36.8153 183.754 36.7052C183.482 36.4704 183.316 36.1047 183.256 35.6083C183.194 35.0964 183.339 34.5597 183.688 33.9984C184.151 33.266 184.677 32.0815 185.268 30.4447C186.02 28.3871 186.693 26.1344 187.288 23.6866C186.859 23.7853 186.455 23.8575 186.075 23.9032C185.105 24.0197 184.298 23.9122 183.652 23.5806C183.175 23.3467 182.73 22.9517 182.317 22.3954L182.934 21.6367C183.647 22.456 184.608 22.793 185.818 22.6476C186.314 22.5879 186.91 22.4691 187.604 22.2912L187.627 22.1823L187.761 21.5288L187.895 20.8754C188.105 19.8114 188.179 19.0157 188.115 18.4883C188.048 17.9298 187.739 17.6836 187.188 17.7498C187.064 17.7647 186.904 17.8076 186.708 17.8783L186.995 16.8288ZM192.041 30.8228C192.59 31.9214 193.272 32.6539 194.087 33.0202C194.928 33.4069 196.012 33.5206 197.339 33.3612C198.324 33.2428 199.127 33.0558 199.75 32.8C200.102 32.6553 200.453 32.562 200.802 32.5201C201.36 32.453 201.839 32.5725 202.238 32.8787C202.419 33.0142 202.522 33.1828 202.546 33.3845C202.591 33.7568 202.309 34.0583 201.699 34.289C201.21 34.4737 200.325 34.6429 199.045 34.7967C196.881 35.0568 195.233 34.9598 194.1 34.5057C192.82 33.9987 191.858 32.9655 191.214 31.4061L192.041 30.8228ZM195.343 26.5782L196.563 25.0389C194.891 25.3342 193.327 25.9392 191.871 26.8538L191.602 25.9891C193.418 24.5355 195.272 23.695 197.165 23.4675C198.126 23.3519 198.906 23.4235 199.504 23.6822C199.803 23.8115 199.966 23.9925 199.994 24.2252C200.029 24.52 199.818 24.7224 199.359 24.8327C198.281 25.096 197.218 25.8138 196.171 26.9862L195.343 26.5782ZM219.585 31.4057C221.771 30.7753 223.46 29.8489 224.651 28.6266C225.627 27.6277 226.204 26.473 226.383 25.1624C226.483 24.455 226.493 23.654 226.411 22.7593C226.26 21.0943 225.685 19.6443 224.686 18.4095C224.024 17.5989 223.199 16.9797 222.21 16.5519C221.099 16.0647 219.886 15.8809 218.571 16.0005C218.237 16.031 217.928 16.0826 217.644 16.1555C218.015 16.867 218.237 17.6313 218.312 18.4482C218.511 20.6422 218.127 23.015 217.159 25.5663C216.293 27.8651 215.226 29.5861 213.957 30.7292C213.363 31.2697 212.72 31.5714 212.028 31.6344C211.063 31.7222 210.263 31.2498 209.627 30.2172C209.057 29.2963 208.709 28.1356 208.581 26.7352C208.43 25.0779 208.726 23.3683 209.468 21.6064C210.086 20.1302 210.972 18.8728 212.125 17.8344C214.047 16.1063 216.209 15.1328 218.614 14.9141C220.963 14.7003 223.011 15.1729 224.756 16.3321C225.523 16.8349 226.189 17.4725 226.754 18.2448C227.702 19.5236 228.247 20.9487 228.39 22.5204C228.67 25.6014 227.775 28.001 225.703 29.7193C224.398 30.803 222.53 31.6554 220.099 32.2767L219.585 31.4057ZM216.586 16.4283C214.8 17.0537 213.355 18.1148 212.251 19.6115C210.736 21.6636 210.099 24.02 210.341 26.6809C210.439 27.7546 210.65 28.5669 210.975 29.1179C211.298 29.6533 211.67 29.9019 212.09 29.8636C212.588 29.8183 213.192 29.3044 213.903 28.3219C214.648 27.2892 215.331 25.9092 215.95 24.1818C216.799 21.7826 217.148 19.7582 216.998 18.1088C216.946 17.5408 216.809 16.9806 216.586 16.4283ZM237.317 24.0587C237.316 25.9993 237.135 27.723 236.774 29.23C236.456 30.539 235.944 31.804 235.238 33.0252L234.415 32.5902C235.166 30.764 235.616 28.7395 235.765 26.5167C235.857 25.103 235.856 23.546 235.761 21.8455L235.177 11.444C235.296 11.4764 235.383 11.4989 235.439 11.5114C235.733 11.5966 236.079 11.7024 236.478 11.8287L236.777 11.9292L240.1 11.7427L240.83 10.7393C241.819 11.4897 242.32 11.9936 242.335 12.251C242.341 12.368 242.285 12.4807 242.166 12.5891L241.707 12.9905L242.704 30.7516C242.753 31.6096 242.494 32.1562 241.928 32.3914C241.56 32.5373 241.069 32.6275 240.452 32.6621C240.414 32.2573 240.196 31.9957 239.798 31.8772C239.512 31.7916 238.932 31.7145 238.06 31.6461L238.01 30.7569C238.927 30.7915 239.753 30.7882 240.486 30.747C240.876 30.7251 241.106 30.6379 241.175 30.4853C241.216 30.3813 241.232 30.2435 241.223 30.0719L240.874 23.859L237.317 24.0587ZM236.996 17.3043L240.495 17.1079L240.256 12.8607L236.758 13.0571L236.996 17.3043ZM237.059 18.4275L237.245 21.7387C237.261 22.0117 237.276 22.3591 237.292 22.7807L237.288 22.9101L240.809 22.7123L240.558 18.2311L237.059 18.4275ZM246.189 13.1731L246.541 19.4328C246.716 22.5607 246.596 25.1614 246.181 27.2348C245.796 29.1656 245.07 30.9318 244.002 32.5332L243.158 31.935C244.098 30.1373 244.69 28.0736 244.935 25.7437C245.119 23.9963 245.142 21.9135 245.007 19.4955L244.559 11.5158C245.042 11.6139 245.654 11.7869 246.395 12.0348L249.765 11.8456L250.495 10.8422C251.595 11.6099 252.152 12.1263 252.167 12.3915C252.174 12.5242 252.11 12.6451 251.976 12.7544L251.449 13.1948L252.366 29.5401C252.381 29.8053 252.469 29.9687 252.629 30.0301C252.805 30.0985 253.123 30.1197 253.583 30.0939C254.262 30.0558 254.656 29.9084 254.767 29.6518C254.83 29.5153 254.883 29.2776 254.927 28.9386C255.067 27.8118 255.121 26.4708 255.088 24.9155L256.043 25.2022C256.08 26.28 256.111 27.0294 256.134 27.4506C256.187 28.3867 256.268 28.9964 256.378 29.2797C256.486 29.5397 256.669 29.6624 256.927 29.648C256.942 29.6471 256.969 29.6456 257.008 29.6434C257.045 30.4394 256.796 30.9425 256.26 31.1525C255.923 31.281 255.247 31.3737 254.233 31.4306C252.759 31.5134 251.848 31.4628 251.502 31.2788C251.154 31.0871 250.959 30.6051 250.916 29.8328L249.969 12.961L246.189 13.1731ZM267.468 10.5227C267.934 10.3672 268.406 10.2859 268.882 10.2787C269.64 10.2673 270.26 10.4221 270.741 10.743C271.017 10.9185 271.157 11.1391 271.161 11.4047C271.163 11.5375 271.142 11.6863 271.098 11.851C271.083 11.9059 271.076 11.9685 271.077 12.0388C271.088 12.7341 271.253 13.8255 271.572 15.313L271.724 15.2756L272.938 14.976C273.639 14.817 274.071 14.7089 274.234 14.6517C274.701 14.5041 275.158 14.2706 275.606 13.9513C275.916 13.7357 276.219 13.6256 276.516 13.6212C276.781 13.6172 277.166 13.7247 277.669 13.9437C278.283 14.2079 278.592 14.5041 278.597 14.8322C278.601 15.1446 278.472 15.3458 278.207 15.4358C277.935 15.5258 277.444 15.5762 276.733 15.5869L276.522 15.5901C275.584 15.6042 274.006 15.878 271.788 16.4114C272.107 17.9224 272.45 19.437 272.817 20.9551L273.074 20.8926C274.639 20.5487 275.823 20.2925 276.625 20.1242C277.264 19.9973 277.842 19.7425 278.36 19.3597C278.669 19.1284 278.996 19.0102 279.339 19.005C279.745 18.9989 280.244 19.1868 280.836 19.5685C281.144 19.7592 281.299 19.9795 281.303 20.2295C281.311 20.7529 280.917 21.0206 280.12 21.0326C279.979 21.0347 279.823 21.0332 279.651 21.0279C279.456 21.0231 279.319 21.0212 279.241 21.0224C279.077 21.0249 278.835 21.0441 278.515 21.0802C278.359 21.0982 278.18 21.1165 277.977 21.1352C277.228 21.2168 275.6 21.546 273.093 22.1229C273.656 24.2475 274.215 26.1026 274.77 27.6881C274.983 28.31 275.092 28.8475 275.099 29.3005C275.106 29.7458 275.029 30.0868 274.869 30.3237C274.716 30.5525 274.526 30.6687 274.3 30.6721C273.534 30.6836 273.072 30.0694 272.912 28.8295C272.762 27.6754 272.351 25.5602 271.68 22.4841L271.423 22.5465C269.197 23.1192 267.785 23.5116 267.186 23.7238C266.525 23.9447 265.982 24.1638 265.555 24.3812C265.237 24.5423 264.969 24.6244 264.75 24.6277C263.915 24.6403 263.156 24.054 262.474 22.8689L263.06 22.0865C263.45 22.6041 263.989 22.8577 264.677 22.8474C265.231 22.839 266.01 22.6945 267.014 22.4137C268.111 22.1081 269.582 21.7343 271.427 21.2924C271.085 19.8521 270.75 18.3257 270.421 16.7133L270.281 16.7623C267.993 17.3437 266.546 17.8069 265.942 18.152C265.539 18.3847 265.193 18.5032 264.904 18.5075C264.443 18.5145 264.019 18.3294 263.63 17.9524C263.361 17.6987 263.058 17.3086 262.722 16.7824L263.308 16.0118C263.706 16.498 264.253 16.7359 264.948 16.7254C265.518 16.7168 267.267 16.3545 270.194 15.6385L270.144 15.44C269.687 13.6029 269.401 12.5641 269.288 12.3236C269.013 11.7105 268.474 11.41 267.669 11.4221C267.568 11.4237 267.45 11.4293 267.318 11.4391L267.468 10.5227ZM294.284 14.9813C294.877 14.7756 295.385 14.6802 295.806 14.6951C296.447 14.7177 296.937 14.8953 297.277 15.2279C297.42 15.3736 297.489 15.5363 297.482 15.7159C297.479 15.8018 297.464 15.9146 297.435 16.0543C297.416 16.1474 297.406 16.2174 297.404 16.2643C297.402 16.3267 297.427 16.6168 297.479 17.1346L297.534 17.5704C297.589 18.2134 297.702 18.9053 297.871 19.6461C298.886 19.4632 299.841 19.2976 300.738 19.1495C301.886 18.9634 302.586 18.8436 302.838 18.7899C303.279 18.7039 303.637 18.5094 303.914 18.2065C304.06 18.0475 304.243 17.9719 304.461 17.9796C304.844 17.9932 305.305 18.3222 305.845 18.9667C306.04 19.2081 306.134 19.4264 306.127 19.6216C306.117 19.9105 305.917 20.1301 305.529 20.2805C305.291 20.3738 305.057 20.5883 304.826 20.9241C303.557 22.771 302.454 24.1235 301.517 24.9815L300.846 24.3832C302.093 22.7231 302.988 21.1874 303.53 19.776L303.022 19.8753C300.905 20.2694 299.253 20.5862 298.064 20.8256C298.498 23.3503 299.019 25.8742 299.625 28.3972L299.676 28.6218C299.894 29.5207 300 30.0756 299.992 30.2864C299.985 30.4972 299.927 30.6828 299.82 30.8431C299.638 31.1181 299.419 31.2511 299.161 31.242C298.458 31.2171 298.079 30.7894 298.022 29.9587C297.899 28.3674 297.463 25.4205 296.717 21.118C295.237 21.4096 294.306 21.6425 293.925 21.8166C293.48 22.0197 293.085 22.1152 292.742 22.1031C292.289 22.0871 291.882 21.8851 291.52 21.497C291.257 21.2141 291.077 20.7817 290.98 20.1998L291.577 19.5642C291.871 20.0906 292.307 20.364 292.885 20.3844C293.244 20.3971 294.32 20.2515 296.113 19.9475L296.49 19.8905C296.187 18.2928 295.978 17.2457 295.863 16.7491C295.719 16.1656 295.374 15.8641 294.828 15.8448C294.679 15.8395 294.464 15.8476 294.182 15.8688L294.284 14.9813ZM320.423 12.9036C320.699 13.5233 321.265 13.87 322.121 13.9438C323.071 14.0255 324.529 14.0256 326.496 13.9441C327.394 13.9037 328.011 13.8393 328.348 13.7507C328.444 13.7276 328.642 13.6584 328.942 13.543C329.169 13.4606 329.383 13.4281 329.586 13.4455C329.936 13.4757 330.353 13.6919 330.835 14.0942C331.172 14.3741 331.327 14.6697 331.3 14.9811C331.263 15.4092 330.875 15.5914 330.136 15.5277C329.801 15.4989 329.321 15.4301 328.695 15.3214C328.548 15.2931 328.308 15.2645 327.973 15.2357C326.837 15.1378 325.818 15.1325 324.916 15.2195C323.683 15.3407 322.866 15.4468 322.466 15.5378C322.114 15.6173 321.86 15.6504 321.705 15.637C321.183 15.5921 320.721 15.317 320.317 14.8118C319.999 14.408 319.802 13.9676 319.725 13.4905L320.423 12.9036ZM318.235 17.82C318.419 18.228 318.685 18.5096 319.033 18.665C319.319 18.7994 319.793 18.8951 320.455 18.9521C321.179 19.0144 322.826 19.1014 325.396 19.2129C326.068 19.2394 327.164 19.2631 328.683 19.2842C328.777 19.2844 328.942 19.2868 329.177 19.2914C330.052 19.3197 330.73 19.186 331.211 18.8902C331.434 18.7526 331.643 18.6922 331.838 18.7089C332.134 18.7344 332.458 19.0642 332.811 19.6984C333.097 20.2091 333.226 20.6202 333.199 20.9315C333.176 21.1962 332.947 21.447 332.511 21.6839C332.272 21.8123 332.083 21.9646 331.942 22.1407C331.88 22.2216 331.711 22.5011 331.435 22.9792C329.997 25.4744 328.21 27.422 326.074 28.8221C324.23 30.0199 321.923 30.9504 319.153 31.6137L318.661 30.7715C321.7 29.8962 324.179 28.6158 326.096 26.9303C328.038 25.2312 329.542 23.0632 330.608 20.4261C325.047 20.3473 321.688 20.4266 320.531 20.6642C320.139 20.7481 319.831 20.7803 319.605 20.7609C318.546 20.6697 317.841 19.8954 317.488 18.4379L318.235 17.82ZM343.293 19.6215C343.287 20.2194 343.555 20.5533 344.097 20.6234C344.376 20.6594 345.181 20.5901 346.511 20.4153C347.264 20.3157 347.972 20.2339 348.634 20.1697C349.196 18.8086 349.521 17.7871 349.609 17.1053C349.722 16.2298 349.283 15.7279 348.291 15.5998L348.847 14.7736C349.05 14.7841 349.218 14.7979 349.349 14.8149C350.031 14.903 350.596 15.1059 351.043 15.4237C351.497 15.7502 351.694 16.1497 351.633 16.6224C351.597 16.9013 351.478 17.2128 351.276 17.557C351.095 17.8566 350.89 18.3146 350.661 18.9309C350.586 19.1419 350.492 19.3857 350.377 19.6624C350.301 19.8258 350.243 19.968 350.204 20.089C350.742 20.0718 351.209 20.0888 351.604 20.1398C352.704 20.282 353.501 20.8182 353.995 21.7486C354.515 22.7294 354.673 24.0063 354.469 25.5792C354.238 27.369 353.601 29.13 352.558 30.8622C351.848 32.0308 351.034 32.9301 350.118 33.5601C349.608 33.9117 349.163 34.0629 348.783 34.0139C348.543 33.9829 348.401 33.8975 348.356 33.7578C348.337 33.716 348.332 33.5774 348.338 33.342C348.365 32.7074 348.141 32.0955 347.666 31.5063C347.484 31.2701 347.19 30.9525 346.784 30.5535L347.289 29.8506C347.743 30.2401 348.298 30.6348 348.955 31.0348C349.131 31.1363 349.252 31.2071 349.318 31.2471C349.485 31.3553 349.611 31.415 349.697 31.426C349.929 31.456 350.246 31.2015 350.646 30.6624C351.15 29.9949 351.617 29.1533 352.047 28.1376C352.567 26.9207 352.892 25.8047 353.024 24.7897C353.167 23.6818 353.075 22.8034 352.749 22.1548C352.475 21.5994 352.027 21.2816 351.407 21.2015C350.997 21.1485 350.425 21.1573 349.691 21.2279C347.96 24.9903 346.053 28.2849 343.971 31.1117C342.939 32.5144 342.253 33.1938 341.912 33.1498C341.726 33.1257 341.577 33.0239 341.467 32.8441C341.303 32.5867 341.248 32.2526 341.301 31.842C341.362 31.3693 341.649 30.8865 342.161 30.3934C343.796 28.84 345.714 25.9447 347.915 21.7075L348.04 21.4755C346.766 21.7047 345.671 21.9769 344.756 22.2919C344.203 22.4883 343.818 22.5724 343.601 22.5444C342.655 22.4223 342.252 21.5785 342.392 20.0132L343.293 19.6215ZM357.891 26.2575C358.916 26.5554 359.638 26.7313 360.056 26.7854C360.451 26.8364 360.674 26.6683 360.724 26.2809C360.8 25.692 360.625 24.9408 360.2 24.0272C359.435 22.3844 358.139 20.9212 356.312 19.6374L357.145 18.9533C358.932 20.1216 360.314 21.4384 361.29 22.9037C362.405 24.5837 362.854 26.2606 362.637 27.9342C362.558 28.5463 362.4 29.0103 362.162 29.3261C361.914 29.6643 361.65 29.8153 361.371 29.7793C361.115 29.7463 360.914 29.5981 360.767 29.3349C360.349 28.6035 359.822 28.0824 359.184 27.7717C358.896 27.6241 358.423 27.4449 357.765 27.2338L357.891 26.2575ZM359.347 16.1774C360.175 16.5994 360.834 17.0784 361.324 17.6144C361.91 18.2573 362.165 18.8771 362.088 19.4737C362.044 19.8146 361.907 20.0529 361.677 20.1886C361.515 20.2781 361.349 20.3118 361.179 20.2898C360.799 20.2407 360.573 20.0106 360.5 19.5994C360.293 18.3989 359.716 17.4343 358.771 16.7056L359.347 16.1774ZM361.802 14.734C362.631 15.1483 363.29 15.6273 363.779 16.171C364.365 16.8139 364.62 17.4337 364.543 18.0303C364.5 18.3635 364.363 18.6018 364.132 18.7452C363.971 18.8347 363.805 18.8684 363.634 18.8463C363.309 18.8043 363.098 18.6392 363.001 18.351C362.984 18.3015 362.955 18.1599 362.914 17.9262C362.735 16.8712 362.173 15.9831 361.226 15.2622L361.802 14.734ZM371.429 33.4589L372.973 35.0148C373.345 32.8115 373.748 30.6572 374.182 28.5517C371.571 31.0189 369.712 32.9038 368.605 34.2065C368.318 34.5463 368.059 34.6967 367.828 34.6577C367.635 34.6252 367.479 34.4444 367.361 34.1154C367.257 33.8364 367.237 33.5082 367.301 33.1308C367.353 32.8226 367.465 32.584 367.636 32.4148C367.683 32.3673 367.818 32.2514 368.039 32.0669C369.484 30.8766 370.755 29.7996 371.852 28.836C373.394 27.4956 374.305 26.6986 374.585 26.4448L374.597 26.3755L374.716 25.8132C374.836 25.1443 374.924 24.6718 374.979 24.3958L374.716 24.4704C373.192 24.9104 372.299 25.1796 372.037 25.278C371.691 25.4019 371.399 25.4437 371.16 25.4034C370.69 25.3241 370.377 25.0178 370.222 24.4845C370.149 24.2583 370.077 23.7707 370.005 23.0218L370.786 22.5475C370.92 23.2118 371.221 23.5836 371.691 23.6629C372.2 23.7487 373.364 23.5847 375.185 23.1709C375.452 21.5441 375.592 20.5734 375.605 20.2588C375.634 19.3842 375.233 18.8253 374.403 18.5822L374.944 17.8416C375.665 17.9792 376.351 18.2336 377.001 18.6048C377.535 18.9167 377.755 19.3499 377.662 19.9046C377.636 20.0587 377.527 20.3256 377.336 20.7054C377.076 21.216 376.789 22.0034 376.474 23.0675C376.736 23.1593 376.968 23.3806 377.17 23.7317C377.415 24.1611 377.513 24.5184 377.465 24.8034C377.438 24.9652 377.288 25.146 377.017 25.3458C376.582 25.6686 376.12 26.1294 375.631 26.7282L375.473 27.3791C378.742 25.007 381.547 24.0185 383.889 24.4137C385.776 24.7321 387.138 25.6551 387.973 27.1826C388.694 28.5006 388.906 30.0339 388.611 31.7826C388.286 33.7085 387.502 35.236 386.258 36.365C385.304 37.2262 384.027 37.7277 382.426 37.8697C381.365 37.96 380.034 37.8899 378.433 37.6593L378.266 36.6803C380.55 36.9469 382.376 36.7599 383.744 36.1191C384.252 35.88 384.717 35.5149 385.141 35.0238C385.951 34.075 386.48 32.8611 386.73 31.382C387 29.7796 386.824 28.4743 386.202 27.4661C385.592 26.4837 384.666 25.8878 383.426 25.6785C382.193 25.4705 380.696 25.7526 378.933 26.5249C377.735 27.0516 376.514 27.7883 375.268 28.735C375.001 30.3219 374.72 32.481 374.425 35.2123L374.411 35.2932C374.363 35.8633 374.331 36.1908 374.317 36.2755C374.235 36.7608 374.001 37.2324 373.615 37.6901C373.308 38.0504 372.997 38.2039 372.681 38.1506C372.319 38.0895 372.144 37.743 372.156 37.1111C372.171 36.2661 371.716 35.2582 370.788 34.0876L371.429 33.4589ZM396.413 27.7412C396.364 28.3371 396.607 28.6894 397.143 28.7982C397.419 28.8542 398.226 28.8427 399.566 28.7639C400.324 28.7186 401.036 28.6877 401.701 28.6712C402.359 27.3539 402.756 26.3584 402.893 25.6847C403.069 24.8195 402.667 24.2874 401.687 24.0885L402.3 23.3043C402.502 23.3294 402.669 23.3551 402.799 23.3815C403.473 23.5183 404.021 23.7612 404.445 24.1103C404.874 24.4685 405.041 24.8811 404.947 25.3482C404.891 25.6238 404.75 25.926 404.523 26.2547C404.4 26.4291 403.983 27.2453 403.273 28.7034C403.811 28.7248 404.275 28.7752 404.665 28.8545C405.752 29.0752 406.509 29.6673 406.935 30.6307C407.383 31.6463 407.449 32.9312 407.133 34.4854C406.774 36.254 406.012 37.9648 404.848 39.6177C404.056 40.7323 403.18 41.571 402.221 42.1336C401.686 42.4476 401.232 42.5666 400.857 42.4904C400.619 42.4422 400.483 42.3469 400.448 42.2043C400.433 42.1613 400.437 42.0227 400.461 41.7883C400.533 41.1573 400.354 40.5309 399.922 39.9091C399.757 39.6604 399.487 39.3225 399.111 38.8955L399.665 38.2306C400.089 38.6517 400.615 39.0853 401.242 39.5314C401.41 39.6453 401.526 39.7245 401.588 39.7691C401.747 39.8891 401.869 39.9576 401.953 39.9747C402.183 40.0214 402.517 39.7902 402.955 39.2813C403.505 38.6516 404.032 37.8457 404.534 36.8635C405.14 35.687 405.544 34.5973 405.748 33.5943C405.97 32.4994 405.942 31.6168 405.663 30.9465C405.429 30.3728 405.006 30.0237 404.393 29.8994C403.988 29.817 403.416 29.7847 402.679 29.8025C400.683 33.431 398.545 36.5803 396.265 39.2504C395.135 40.5755 394.402 41.2039 394.065 41.1355C393.881 41.0982 393.74 40.9859 393.643 40.7987C393.498 40.5302 393.467 40.193 393.549 39.7872C393.644 39.3202 393.965 38.8592 394.512 38.4042C396.253 36.972 398.374 34.2218 400.874 30.1535L401.015 29.931C399.727 30.0682 398.616 30.2611 397.681 30.5097C397.115 30.6659 396.725 30.7222 396.51 30.6787C395.576 30.489 395.235 29.6185 395.486 28.0672L396.413 27.7412ZM410.498 35.4076C411.499 35.7782 412.206 36.0054 412.619 36.0894C413.01 36.1686 413.244 36.0169 413.321 35.6341C413.44 35.0522 413.319 34.2903 412.96 33.3486C412.316 31.6552 411.128 30.1027 409.398 28.6912L410.277 28.0686C411.976 29.3621 413.26 30.7746 414.129 32.3062C415.119 34.0619 415.447 35.7666 415.111 37.4204C414.988 38.0252 414.797 38.4767 414.537 38.7747C414.265 39.0941 413.991 39.2259 413.716 39.1699C413.463 39.1186 413.273 38.9564 413.145 38.6833C412.781 37.9238 412.292 37.3663 411.679 37.0106C411.402 36.8427 410.943 36.63 410.302 36.3723L410.498 35.4076ZM427.683 29.6553C427.886 30.2967 428.242 30.6772 428.751 30.7968C429.39 30.9468 430.98 30.9789 433.52 30.8931C433.819 30.8831 433.997 30.8768 434.054 30.8741C434.473 30.8681 434.791 30.8104 435.009 30.7012C435.254 30.5821 435.479 30.5466 435.684 30.5948C436.118 30.6966 436.472 31.0487 436.748 31.6511C437.001 32.216 437.086 32.6734 437.004 33.0232C436.94 33.297 436.785 33.4253 436.54 33.408C436.239 33.3933 435.828 33.5016 435.309 33.7327C433.271 34.6507 430.582 36.158 427.241 38.2545L427.271 38.3337C429.209 37.8018 431.095 37.751 432.928 38.1813C434.685 38.5938 436.042 39.3778 436.998 40.5332C437.991 41.7374 438.314 43.0811 437.966 44.5642C437.552 46.3287 436.505 47.6238 434.827 48.4496C434.164 48.7756 433.444 49.0076 432.665 49.1458C431.416 49.3741 430.202 49.3499 429.023 49.0731C427.547 48.7267 426.304 48.0936 425.292 47.1739C424.239 46.2207 423.844 45.1889 424.104 44.0785C424.262 43.4092 424.662 42.9334 425.306 42.6513C425.914 42.3848 426.606 42.3427 427.382 42.5248C428.926 42.8873 430.012 43.6799 430.64 44.9026C431.174 45.9429 431.346 46.9182 431.157 47.8287C432.059 47.7437 432.841 47.542 433.502 47.2236C434.905 46.5421 435.769 45.513 436.092 44.1363C436.378 42.9194 436.1 41.831 435.258 40.8709C434.499 40.0026 433.461 39.4139 432.145 39.105C430.64 38.7514 429.018 38.8401 427.28 39.3711C426.037 39.7452 424.758 40.424 423.444 41.4075C423.19 41.5968 422.982 41.7846 422.818 41.9708C422.596 42.2317 422.318 42.3229 421.983 42.2443C421.458 42.1211 421.289 41.664 421.475 40.873C421.585 40.4014 421.827 40.0209 422.2 39.7312C422.288 39.6636 422.522 39.5219 422.902 39.3061C424.772 38.2446 426.906 36.984 429.303 35.5245C431.852 33.9643 433.795 32.7472 435.131 31.8734L435.147 31.8049C434.275 31.897 433.517 31.98 432.874 32.0536C432.206 32.1296 431.749 32.1788 431.503 32.2013C430.886 32.2651 430.16 32.3873 429.323 32.568C428.866 32.6694 428.538 32.6968 428.34 32.6504C427.45 32.4415 426.962 31.5844 426.874 30.0791L427.683 29.6553ZM429.501 47.753C429.537 45.378 428.741 43.9995 427.114 43.6174C426.155 43.3924 425.591 43.6411 425.422 44.3637C425.308 44.8504 425.441 45.3393 425.824 45.8303C425.976 46.0347 426.209 46.2578 426.521 46.4996C427.219 47.0486 428.017 47.4285 428.914 47.6392L429.501 47.753ZM454.877 50.0465L455 49.5819C455.37 48.1768 455.912 47.043 456.624 46.1805C457.132 45.5712 457.991 44.8726 459.201 44.0847C459.98 43.5793 460.572 43.1293 460.975 42.7346C461.535 42.1715 461.905 41.55 462.084 40.8701C462.347 39.8729 462.171 38.9942 461.555 38.234C460.962 37.512 460.05 36.9886 458.819 36.6638C457.512 36.3192 456.359 36.2939 455.36 36.588C454.867 36.7409 454.445 36.9808 454.092 37.3079C454.568 37.4334 454.925 37.7014 455.164 38.1119C455.381 38.4842 455.438 38.8668 455.334 39.2596C455.213 39.7204 454.937 40.0636 454.505 40.2893C454.11 40.5002 453.671 40.5419 453.188 40.4144C452.734 40.2949 452.386 40.0213 452.144 39.5937C451.882 39.1451 451.826 38.6374 451.976 38.0709C452.259 36.9982 453.059 36.2154 454.377 35.7226C455.845 35.1806 457.5 35.1527 459.343 35.6388C460.9 36.0492 462.146 36.7294 463.083 37.6795C464.278 38.9077 464.695 40.2092 464.332 41.584C464.079 42.5434 463.432 43.3746 462.39 44.0774C461.906 44.4104 461.081 44.8271 459.915 45.3275C458.73 45.8391 457.901 46.4083 457.429 47.0351C456.895 47.7426 456.472 48.6856 456.161 49.8641L456.033 50.3513L454.877 50.0465ZM454.921 52.3608C455.375 52.4804 455.725 52.7587 455.974 53.1958C456.205 53.6044 456.263 54.0277 456.148 54.4658C456.064 54.7831 455.899 55.0548 455.654 55.2809C455.182 55.7221 454.64 55.862 454.028 55.7006C453.764 55.6309 453.528 55.4999 453.32 55.3077C452.799 54.8311 452.628 54.2566 452.805 53.5843C452.956 53.0101 453.319 52.6169 453.892 52.4044C454.231 52.2837 454.574 52.2692 454.921 52.3608Z" fill="black"/>
<defs>
<filter id="filter0_di_99_2" x="78.8759" y="58.2445" width="398.159" height="287.938" filterUnits="userSpaceOnUse" color-interpolation-filters="sRGB">
<feFlood flood-opacity="0" result="BackgroundImageFix"/>
<feColorMatrix in="SourceAlpha" type="matrix" values="0 0 0 0 0 0 0 0 0 0 0 0 0 0 0 0 0 0 127 0" result="hardAlpha"/>
<feOffset dy="4"/>
<feGaussianBlur stdDeviation="2"/>
<feComposite in2="hardAlpha" operator="out"/>
<feColorMatrix type="matrix" values="0 0 0 0 0 0 0 0 0 0 0 0 0 0 0 0 0 0 0.25 0"/>
<feBlend mode="normal" in2="BackgroundImageFix" result="effect1_dropShadow_99_2"/>
<feBlend mode="normal" in="SourceGraphic" in2="effect1_dropShadow_99_2" result="shape"/>
<feColorMatrix in="SourceAlpha" type="matrix" values="0 0 0 0 0 0 0 0 0 0 0 0 0 0 0 0 0 0 127 0" result="hardAlpha"/>
<feOffset dx="4" dy="4"/>
<feGaussianBlur stdDeviation="1.5"/>
<feComposite in2="hardAlpha" operator="arithmetic" k2="-1" k3="1"/>
<feColorMatrix type="matrix" values="0 0 0 0 0 0 0 0 0 0 0 0 0 0 0 0 0 0 0.5 0"/>
<feBlend mode="normal" in2="shape" result="effect2_innerShadow_99_2"/>
</filter>
</defs>
</svg>
