<?xml version="1.0" encoding="UTF-8"?>
<svg id="_レイヤー_2" data-name="レイヤー 2" xmlns="http://www.w3.org/2000/svg" viewBox="0 0 1010.3 778.42">
  <defs>
    <style>
      .cls-1 {
        fill: #bb9582;
      }

      .cls-2 {
        fill: #343433;
      }
    </style>
  </defs>
  <g id="_レイヤー_1-2" data-name="レイヤー 1">
    <path class="cls-2" d="M200.01,110.39c7.3-18.32,7.54-40.7,7.54-61.89V11.38c0-2.63,1.68-3.83,4.19-2.75l5.99,2.51h13.88l1.91-2.51c1.44-1.92,3.23-2.16,5.15-.6l3.71,2.99c2.04,1.68,2.75,3.59,1.44,4.19-.72.36-1.56.6-2.39.84v79.85c0,6.22-.96,10.3-8.74,11.85-2.39.6-3.71-.72-4.31-2.99-.36-1.32-.84-2.39-1.56-3.11-.96-1.08-2.39-2.03-4.79-2.75-2.16-.6-3.35-.96-3.35-1.56s1.32-.84,3.83-.6c3.47.24,6.58.48,7.78.48,1.8,0,2.16-.84,2.16-2.51v-25.02h-16.88c-.96,14.73-4.07,30.17-13.05,42.38-1.32,1.67-2.39,2.39-2.99,2.04-.6-.36-.48-1.56.48-3.71ZM232.45,41.55h-16.16v6.83c0,5.63,0,11.61-.48,17.72h16.64v-24.54ZM232.45,38.08V14.61h-16.16v23.47h16.16ZM239.15,110.5c11.13-16.64,12.57-37.47,12.57-59.02V12.22c0-2.63,1.68-3.83,4.19-2.75l6.23,2.75h14.25l2.64-3.23c1.43-1.8,3.23-2.04,5.03-.36l4.07,3.71c1.91,1.8,2.51,3.83.96,4.43-.72.24-1.56.36-2.64.6v79.49c0,1.8.36,2.52,2.04,2.52h3.11c1.56,0,2.63,0,3.35-.12.6,0,.95-.24,1.32-1.56.72-1.91,2.03-10.18,3.23-17.6,0-.24.12-.36.12-.6.36-2.15.95-3.23,1.32-3.23s.6,1.2.72,3.59l.48,18.8c2.63,1.2,3.11,2.28,3.11,4.19,0,3.71-3.47,5.75-13.88,5.75h-5.39c-7.18,0-8.38-2.63-8.38-8.86V15.69h-17v35.79c0,20.95-1.43,44.53-19.39,61.05-1.43,1.44-2.63,1.92-3.23,1.56-.6-.36-.12-1.56,1.2-3.59Z"/>
    <path class="cls-2" d="M320.98,55.2h9.22l2.87-3.95c1.32-1.91,3.23-2.28,5.03-.6l4.79,4.31c2.04,1.8,2.52,3.71.72,4.43-.84.24-1.8.48-2.99.72v31.49c8.02,9.34,16.52,10.65,36.75,10.65,12.33,0,28.61,0,42.14-.36,2.28-.12,3.59.24,3.59.72s-1.07.84-2.75,1.92c-1.44.84-2.39,2.04-3.11,3.71-.84,2.03-1.92,3.11-4.07,3.11h-35.68c-21.19,0-30.41-2.99-38.43-17.36-4.31,5.51-10.77,13.05-14.96,17.12,0,0-2.75.96-4.07-1.67l-1.8-3.35c-1.08-2.15-.48-3.71,1.55-4.79,3.59-1.8,7.78-4.19,11.97-6.7v-35.79h-10.77c-2.15,0-3.35-.6-3.59-1.8-.24-1.2,1.08-1.8,3.59-1.8ZM323.02,9.35c23.82,10.65,18.91,28.61,10.65,25.38-1.68-.72-2.16-2.04-2.64-3.83-1.55-6.46-5.51-13.53-9.69-18.91-1.56-1.92-2.28-2.99-1.8-3.35.48-.36,1.55-.24,3.47.72ZM347.92,17.01c2.75-1.44,5.27-4.67,6.22-8.5.48-2.15.72-3.35,1.32-3.35s1.32.96,1.8,2.99c.24,1.08.36,2.15.48,3.11h50.64l2.64-2.99c1.56-1.8,3.47-1.8,5.15-.12l3.59,3.59c1.91,2.04,2.51,4.07,1.2,4.31-.72.24-1.44.36-2.39.36-2.16,2.52-5.75,5.87-8.86,8.26,1.2.84,2.39,1.92,3.59,2.99,1.8,1.56,2.51,3.23,1.43,3.83-.6.36-1.2.48-1.91.48h-26.81v9.1h14.36l2.39-2.75c1.43-1.67,3.23-1.91,5.03-.48l4.19,3.35c2.03,1.68,2.63,3.59,1.07,4.31-.72.36-1.67.6-2.63.84v27.41c0,.72-4.43,2.75-7.42,2.75-.95,0-1.55-.84-1.55-2.04v-1.91h-15.44v11.61h19.87l3.35-4.43c1.43-1.92,3.23-2.15,5.03-.6,1.68,1.32,3.23,2.75,4.79,4.19,1.67,1.56,2.51,3.23,1.43,3.83-.48.24-1.08.36-1.91.36h-32.56v9.82c0,1.08-3.95,3.11-7.31,3.11-1.08,0-1.8-1.32-1.8-3.59v-9.34h-28.25c-2.03,0-3.23-.48-3.59-1.67-.24-1.08,1.2-1.68,3.71-1.68h28.13v-11.61h-15.2v2.27c0,.96-3.95,2.99-7.54,2.99-.84,0-1.43-1.32-1.43-3.59v-32.8c0-2.63,1.68-3.71,4.19-2.63l5.27,2.28h14.73v-9.1h-23.7c-2.04,0-3.35-.48-3.71-1.8-.24-1.08,1.2-1.8,3.71-1.8h23.7v-6.7c0-2.39,1.44-3.71,3.83-3.47l4.19.48c2.87.36,5.03,2.04,3.71,2.99-.6.48-1.43.72-2.63.96v5.75h14.6l3.12-3.95c1.43-1.91,2.51-2.75,2.87-2.39l.6.6.72-3.35,1.08-4.43h-51c-.12,5.75-2.63,9.82-5.63,11.49-2.99,1.44-7.06.96-8.38-2.28-.84-3.11,1.08-5.63,3.95-7.06ZM376.89,54.72v-10.06h-15.2v10.06h15.2ZM376.89,69.09v-10.89h-15.2v10.89h15.2ZM385.99,54.72h15.44v-10.06h-15.44v10.06ZM401.43,69.09v-10.89h-15.44v10.89h15.44Z"/>
    <path class="cls-2" d="M432.56,48.52c17.59-10.29,36.63-28.61,43.58-42.86.95-2.04,2.39-2.75,4.55-2.28l6.71,1.68c2.99.72,5.03,2.63,3.59,3.11-.72.24-1.68.48-2.87.6,9.81,12.21,28.25,22.03,46.21,28.01,2.04.72,3.12,1.44,2.99,1.91-.12.48-1.08.96-2.75,2.04-1.56.96-2.87,2.52-3.83,4.07-1.08,2.04-2.39,2.87-4.43,1.8-17.24-8.26-32.68-21.31-40.23-36.39-10.41,15.09-31.48,31.49-52.67,40.23-2.16.96-3.35,1.08-3.59.48-.24-.48.72-1.32,2.75-2.4ZM443.09,56.9c0-2.75,1.68-3.95,4.19-2.75l4.79,2.27h16.04l2.16-2.51c1.32-1.56,3.11-1.68,4.91-.24l3.35,2.63c2.03,1.68,2.75,3.47,1.43,4.19-.72.24-1.43.6-2.28.72v36.99c0,.84-4.43,2.87-7.18,2.87-.96,0-1.56-1.32-1.56-3.59v-5.75h-17.24v10.41c0,.84-3.59,2.99-7.3,2.99-.84,0-1.32-1.32-1.32-3.59v-44.65ZM468.95,60.01h-17.24v28.25h17.24v-28.25ZM462.61,39.06h28.25l3.47-4.31c1.44-1.92,3.23-2.04,5.03-.6l5.03,4.19c1.8,1.56,2.64,3.23,1.56,3.95-.48.24-1.2.36-1.91.36h-41.42c-2.04,0-3.35-.48-3.71-1.8-.24-1.08,1.2-1.8,3.71-1.8ZM487.74,56.18c0-2.75,1.68-3.83,4.19-2.75l5.15,2.39h17.48l2.15-2.63c1.32-1.67,3.12-1.91,4.91-.48l4.07,3.11c2.03,1.56,2.75,3.59,1.43,4.19-.72.36-1.56.72-2.51.84v30.17c0,5.87-.96,9.58-8.38,11.13-2.4.48-3.71-.72-4.19-2.75-.36-1.2-.72-2.28-1.32-2.99-.95-.96-2.28-1.68-4.43-2.28-2.16-.72-3.23-1.08-3.23-1.67s1.32-.84,3.83-.6c2.87.24,5.62.36,6.7.36,1.56,0,2.04-.72,2.04-2.28v-30.53h-19.04v50.76c0,.84-3.59,3.11-7.42,3.11-.84,0-1.44-1.32-1.44-3.59v-53.51Z"/>
    <path class="cls-2" d="M591.1,35.46c-.39.89-.99,2.48-1.88,4.56-.2,2.48,1.79,2.58,3.87,1.39,2.48-1.39,4.16-2.77,5.85-2.77,2.18,0,2.97,1.09,3.07,2.77,0,1.59-1.48,3.37-3.96,4.76-2.87,1.59-8.72,3.47-14.07,4.76-3.07,5.95-6.24,11.79-9.51,16.65-.5.79-.2.99.49.5,2.97-2.08,6.54-3.96,10.41-3.96,5.05,0,8.32,2.18,9.41,6.44,6.14-11.49,14.57-17.83,22.89-17.83,13.47,0,16.25,13.87,3.86,18.73-9.31,3.67-18.92,6.54-26.06,9.61,0,.3-.1.69-.1.99,0,4.36.1,9.51.1,11.49,0,3.17-1.39,4.56-3.87,4.56-2.18,0-3.27-1.59-3.27-4.56,0-1.48.2-5.15.4-8.92-5.05,3.17-10.01,7.83-10.01,12.88s5.35,6.14,13.67,6.14c6.94,0,15.16-2.18,17.84-2.18s4.46,1.09,4.46,3.07c0,2.28-1.48,3.57-4.26,4.46-3.57,1.09-10.6,1.88-17.34,1.88-12.98,0-20.61-4.06-20.61-11.59,0-6.34,5.65-13.67,16.55-20.31,0-1.19.1-2.48.1-3.47,0-5.65-1.39-7.04-5.15-7.04-4.95,0-11.89,5.65-17.04,12.09-2.78,3.47-5.35,7.33-7.93,7.33-1.98,0-3.57-2.08-3.57-4.66,0-3.17,7.13-8.82,9.71-11.79,4.66-5.45,9.02-12.29,12.49-19.32-4.16.49-8.72.49-11.39.2-5.05-.69-8.03-5.65-8.62-10.2-.2-1.69,1.29-2.48,2.68-1.29,2.48,2.18,5.15,4.26,8.22,4.85,3.17.59,7.13.59,11.99,0,3.76-9.11,2.97-10.3-1.19-12.58-1.59-.89-1.39-2.48.3-2.97,1.48-.49,2.87-.69,4.36-.69,2.38,0,4.95.79,6.74,1.98,1.19.79,1.19,2.18.39,4.06ZM597.84,74.5c4.86-2.08,11.99-4.95,18.83-8.32,7.04-3.47,6.34-8.92-.2-8.92s-14.36,8.22-18.63,17.24Z"/>
    <path class="cls-2" d="M117.72,426.68c21.5-12.37,43.59-29.45,57.73-44.77,3.53-4.13,7.66-4.71,12.08-1.47l8.25,5.6c5.89,4.13,9.72,10.31,6.48,10.6-1.48,0-3.54-.29-5.9-.88-17.08,13.55-47.42,28.57-76.88,37.11-5.01,1.47-7.66,1.47-8.54.29-.89-1.18,1.47-3.53,6.78-6.48ZM120.08,268.21h101.91v-26.51h-75.99c-5.3,0-8.25-1.77-8.84-4.42-.59-2.36,2.95-4.12,9.13-4.12h75.7v-26.22h-87.19c-5.3,0-8.25-1.76-8.83-4.42-.59-2.65,2.94-4.12,9.13-4.12h86.89v-19.14c0-5.89,3.24-9.13,9.13-8.54l11.78,1.18c6.78.59,12.08,4.71,8.84,7.07-1.48,1.18-3.54,1.77-6.48,2.36v17.08h62.74l8.54-11.19c3.54-4.42,7.95-5.01,12.67-1.47l12.67,10.6c4.42,3.83,6.48,7.95,3.83,9.72-1.47.59-3.24.88-5.01.88h-95.43v26.22h53.9l7.66-10.01c3.53-4.42,7.95-5.01,12.67-1.47,3.83,2.94,7.66,6.48,11.19,9.43,4.42,3.83,6.48,7.95,3.54,9.72-1.18.59-2.95.89-4.71.89h-84.24v26.51h74.52l8.54-12.08c3.24-4.71,7.95-5.3,12.37-1.47,4.42,3.83,9.13,7.66,13.25,11.49,4.42,3.83,6.19,7.95,3.53,9.43-1.47.88-2.94,1.18-4.71,1.18h-116.64c-12.66,10.9-28.57,23.56-42.42,32.4,15.32,12.08,12.08,27.69.89,28.28-4.12.29-6.78-2.36-9.43-5.89-8.25-10.31-21.8-20.91-34.46-28.57-5.3-3.24-8.25-5.3-7.36-6.48.88-.88,3.53-1.47,7.95-1.18,15.62,1.47,26.81,4.71,35.05,9.13,5.89-8.84,12.67-19.44,17.38-27.69h-83.95c-5.3,0-8.25-1.77-8.84-4.42-.59-2.65,2.94-4.13,9.13-4.13ZM123.61,348.92c17.97.29,42.42,0,71.28-.3,23.27-17.67,48.9-40.65,65.09-58.91,3.54-4.12,7.37-4.71,12.08-2.65l7.66,3.83c7.07,3.53,11.49,8.84,8.54,9.72-1.76.29-3.53.29-6.18,0-15.9,14.43-43.89,32.99-71.58,47.71,6.78,0,13.85-.29,21.21-.29l81.3-1.77c-7.37-6.77-15.91-13.26-23.56-18.26-5.01-3.24-7.37-5.3-6.48-6.48.89-.88,3.53-1.18,8.84-.3,70.69,13.26,70.39,58.03,50.66,56.26-4.12-.59-6.18-3.24-8.54-7.07-3.83-5.6-8.25-11.49-13.55-17.38-21.5,2.65-46.54,5.01-75.4,7.66v74.52c0,1.47-7.66,5.6-18.85,5.6-2.65,0-4.13-3.24-4.13-8.84v-69.51c-26.8,2.36-56.55,4.71-90.13,7.37,0,.3-.29.59-.29.59-3.24,4.71-8.84,2.06-11.2-3.53l-3.24-7.66c-2.65-6.19-.29-10.31,6.48-10.31ZM272.07,381.61c80.41,9.43,86.3,53.02,65.98,53.9-4.42,0-6.78-2.06-9.72-5.3-13.55-14.43-37.4-30.63-57.43-41.53-5.6-2.95-8.25-5.01-7.36-6.19.88-1.18,3.53-1.47,8.54-.88Z"/>
    <path class="cls-2" d="M391.54,427.09c17.8-44.66,18.38-99.24,18.38-150.91v-90.48c0-6.42,4.09-9.34,10.22-6.71l14.59,6.13h33.86l4.67-6.13c3.5-4.67,7.88-5.25,12.55-1.46l9.05,7.3c4.96,4.09,6.71,8.76,3.5,10.22-1.75.88-3.79,1.46-5.84,2.04v194.69c0,15.18-2.34,25.1-21.31,28.9-5.84,1.46-9.05-1.75-10.51-7.3-.88-3.21-2.04-5.84-3.79-7.59-2.34-2.63-5.84-4.96-11.68-6.71-5.26-1.46-8.18-2.34-8.18-3.8s3.21-2.04,9.34-1.46c8.47.59,16.06,1.17,18.98,1.17,4.37,0,5.25-2.04,5.25-6.13v-61h-41.15c-2.34,35.9-9.92,73.56-31.81,103.32-3.21,4.09-5.84,5.84-7.3,4.96-1.46-.87-1.16-3.8,1.17-9.05ZM470.64,259.26h-39.4v16.64c0,13.72,0,28.31-1.17,43.2h40.57v-59.84ZM470.64,250.8v-57.21h-39.4v57.21h39.4ZM486.98,427.39c27.14-40.57,30.65-91.36,30.65-143.9v-95.74c0-6.42,4.08-9.34,10.21-6.71l15.18,6.71h34.74l6.42-7.88c3.51-4.38,7.88-4.96,12.26-.88l9.93,9.05c4.67,4.38,6.13,9.34,2.34,10.8-1.75.59-3.8.88-6.42,1.46v193.81c0,4.38.88,6.13,4.96,6.13h7.59c3.79,0,6.42,0,8.17-.29,1.46,0,2.34-.58,3.21-3.8,1.75-4.67,4.97-24.81,7.88-42.91,0-.58.3-.87.3-1.46.87-5.25,2.34-7.88,3.21-7.88s1.46,2.92,1.75,8.76l1.17,45.82c6.42,2.92,7.59,5.55,7.59,10.22,0,9.05-8.46,14.01-33.86,14.01h-13.13c-17.51,0-20.43-6.42-20.43-21.6v-204.9h-41.45v87.28c0,51.08-3.5,108.58-47.28,148.86-3.51,3.5-6.42,4.67-7.88,3.8-1.46-.87-.3-3.8,2.92-8.76Z"/>
    <path class="cls-2" d="M663.01,433.51c65.44-19.75,89.03-42.74,98.46-73.99h-94.92c-5.01,0-7.96-1.77-8.84-4.42-.59-2.65,2.95-4.13,9.13-4.13h96.69c1.47-7.96,2.06-16.8,2.66-25.94.59-5.9,3.83-8.84,9.43-8.25l13.26,1.18c7.07.59,12.38,4.42,9.43,6.78-1.47,1.18-3.54,2.06-6.19,2.36-.89,8.25-1.77,16.21-3.54,23.88h82.25l9.43-12.38c3.54-4.72,7.67-5.31,12.38-1.77,4.72,4.13,10.02,8.25,14.44,12.38,4.12,3.54,6.19,7.66,3.24,9.43-1.18.59-2.65.89-4.72.89h-108.19c20.34,34.19,58.96,48.93,109.66,54.83,5.9.59,8.84,1.48,8.84,2.36-.29,1.48-2.65,2.06-6.48,4.72-3.83,2.36-7.07,6.19-9.14,10.61-2.36,5.31-5.3,7.67-10.61,6.49-50.11-12.38-81.95-33.61-98.75-79h-4.12c-9.14,36.55-34.19,62.79-122.63,80.47-5.6,1.18-8.84,1.18-9.43-.89-.59-1.77,2.06-3.83,8.25-5.6ZM673.03,303.22h97.57v-35.08h-71.33c-5.02,0-7.96-1.77-8.85-4.42-.59-2.65,2.95-4.13,9.14-4.13h71.04v-33.31h-85.78c-5.3,0-8.25-1.77-8.84-4.42-.59-2.65,2.95-4.13,9.14-4.13h119.09c5.9-12.09,12.38-27.71,17.09-40.97,2.06-5.31,5.6-7.37,11.2-5.31l11.79,4.13c6.78,2.36,11.5,7.07,7.95,8.55-1.47.59-3.53.89-6.19.59-7.96,10.02-20.63,22.4-33.31,33.02h45.99l8.85-12.09c3.53-4.72,7.95-5.3,12.67-1.47l13.56,11.79c4.12,3.83,6.19,7.66,3.24,9.43-1.17.59-2.95.89-4.72.89h-97.86v33.31h51.29l8.25-11.2c3.54-4.42,7.96-5.01,12.68-1.48,4.12,3.54,8.25,7.37,12.08,10.61,4.42,3.83,6.48,7.96,3.54,9.73-1.18.59-2.95.88-4.72.88h-83.13v35.08h72.22l9.13-12.38c3.54-4.42,7.96-5.01,12.68-1.18l13.56,11.5c4.42,3.83,6.19,7.96,3.54,9.73-1.48.59-3.24.88-5.01.88h-227.87c-5.01,0-7.95-1.77-8.84-4.42-.59-2.65,2.95-4.13,9.13-4.13ZM726.97,172.63c47.17,14.15,35.97,50.12,17.69,44.51-4.42-1.47-5.6-4.72-7.07-9.14-2.65-10.02-8.25-20.05-14.44-28.3-3.54-4.72-5.31-7.07-4.42-7.96,1.18-.88,3.54-.59,8.25.88Z"/>
    <g>
      <path class="cls-2" d="M91.51,715.26l-6.24-80.01H15.75c-4.82,0-7.66-1.7-8.51-4.25-.57-2.55,2.83-3.97,8.79-3.97h68.67l-5.39-73.49H15.75c-4.82,0-7.66-1.7-8.51-4.25-.57-2.55,2.83-3.97,8.79-3.97h62.7l-3.4-45.68c-.57-5.96,2.55-8.8,8.23-8.51l13.05.85c6.81.57,12.2,4.54,8.8,7.09-1.71,1.13-3.97,1.7-7.09,2.27l3.4,43.98h44.83l9.65-13.05c3.4-4.54,7.66-4.82,11.91-1.13,4.26,3.69,9.37,7.66,14.47,12.2,4.26,3.69,6.24,7.66,3.69,9.36-1.42.56-2.83.85-4.82.85h-79.16l5.67,73.49h38.59l9.65-13.05c3.4-4.54,7.66-4.82,11.91-1.13,4.26,3.69,9.37,7.66,14.47,12.2,4.26,3.69,6.24,7.66,3.69,9.36-1.42.56-2.83.85-4.82.85h-72.64l5.96,78.03c.28,3.4-8.8,9.36-18.16,10.21l-2.27.29c-1.42.29-2.55-3.12-2.83-8.51Z"/>
      <path class="cls-2" d="M239.6,624.6l-22.13.85c-5.11.29-7.94-.85-8.51-3.4-.56-1.98,2.84-3.69,8.8-3.97l20.99-.85-4.54-41.42c-.56-5.96,2.27-9.08,7.95-9.08h7.37c6.81,0,12.77,3.12,9.93,5.39-1.42.85-3.12,1.7-5.67,2.55l4.82,41.71,81.43-3.69,4.82-5.67c3.4-4.25,7.66-4.82,11.91-1.7l6.53,4.82c5.39,3.97,7.38,8.51,4.26,9.93-1.42.85-3.4,1.7-5.67,1.98-12.77,36.6-34.05,62.14-63.27,76.33-4.82,2.27-7.94,2.27-8.79.56-.85-1.7,1.13-3.69,5.39-7.09,23.55-17.02,38.87-41.14,45.4-72.07l-81.43,3.69,14.47,127.11c.57,4.54-2.27,11.63-13.05,15.32-3.12.85-4.82,0-5.11-2.27l-15.89-139.03Z"/>
      <path class="cls-2" d="M405.93,719.04c-.56-1.7,1.99-3.69,7.66-5.39,65.26-20.14,104.41-57.88,117.18-112.92h-131.37c-4.82,0-7.94-1.13-8.8-4.26-.56-2.55,2.84-4.26,8.8-4.26h128.53l6.24-7.37c3.4-4.26,7.66-4.54,11.92-1.13l11.63,8.79c5.1,3.97,6.53,8.79,2.55,10.5-1.71.56-3.97,1.42-6.53,1.7-12.77,63.27-59.02,101.86-139.03,116.05-5.11.85-7.94,0-8.8-1.7ZM405.08,524.11h102.14l9.65-13.05c3.4-4.54,7.66-4.82,11.91-1.13,4.26,3.69,9.36,7.66,14.47,12.2,4.26,3.69,6.24,7.66,3.69,9.36-1.42.56-2.83.85-4.82.85h-137.33c-4.82,0-7.66-1.7-8.51-4.25-.57-2.55,2.83-3.97,8.79-3.97Z"/>
      <path class="cls-2" d="M582.91,639.09c0-7.3,4.44-10.16,11.1-6.98l15.87,7.3h54.9v-142.49c0-6.35,3.49-9.84,9.84-9.2l13.96,1.27c7.3.63,13.01,5.08,9.52,7.93-1.59,1.27-3.8,1.9-7.29,2.54v55.22h75.21l12.06-16.18c3.8-5.08,8.56-5.72,13.33-1.59,6.03,5.08,12.38,10.79,18.09,15.87,4.45,4.12,6.67,8.89,3.49,10.47-1.27.64-3.18.95-5.39.95h-116.79v75.21h62.52l6.66-8.57c3.81-5.08,8.57-5.08,13.33-1.27l12.69,10.16c5.39,4.44,6.98,9.2,2.85,11.43-1.91.95-4.12,1.9-6.98,2.54v109.49c0,4.44-.95,7.93-5.39,9.84-4.44,1.9-11.43,4.13-16.5,4.13-2.22,0-3.81-3.49-3.81-9.52v-16.18h-147.57v18.41c0,2.54-11.11,8.57-21.58,8.57-2.54,0-4.12-3.49-4.12-9.52v-129.8ZM608.62,742.23h147.57v-93.94h-147.57v93.94Z"/>
      <path class="cls-2" d="M852.3,562.88c-.06-5.18,3.15-7.97,8.1-7.49l10.95.89c6.25.4,11.15,4.25,7.9,6.26-1.25.85-3.28,1.5-6.09,2.18-1.83,68.32,2.43,117.09,12.74,146.03,2.8,7.61,8.12,9.88,15.73,7.09,5.58-2.15,12.29-6.97,19.63-14.16,4.4-4.42,7.64-6.69,8.26-4.91.62,1.78,0,4.15-2.39,7.67-11.72,16.27-22.51,26.52-32.36,31.01-11.1,5.08-19.62,1.45-25.82-10.88-11.13-25.26-16.5-79.66-16.66-163.69ZM958.68,550.73c1.77-.63,4.17.26,7.21,3.45,36.66,40.05,44.59,123.87,44.4,142.03-.55,12.23-5.67,17.72-14,17.19-4.96-.48-9.07-4.12-9.19-10.34-.86-35.48-5.8-82.9-28.43-143.78-1.86-5.07-1.78-7.93,0-8.56Z"/>
    </g>
    <path class="cls-2" d="M650.38,83.03h64.04v-4.71c0-2.35,1.29-3.65,3.65-3.41l3.65.35c2.94.35,5.3,1.88,4.12,2.71-.47.35-1.29.59-2.35.82v4.24h10.36l3.06-4.12c1.41-1.88,3.18-2.12,4.94-.71,1.65,1.29,3.3,2.82,4.82,4.12,1.53,1.53,2.24,3.06,1.18,3.77-.47.24-1.18.35-1.88.35h-22.48v12.95c0,6.36-1.29,10.24-10.95,11.89-2.23.35-3.41-.71-4.24-2.71-.59-1.29-1.18-2.23-2.24-3.06-1.65-1.18-4-2-8.12-2.83-2.24-.47-3.29-.94-3.29-1.41s1.29-.71,3.65-.59c6.12.35,12.01.71,13.65.71,2,0,2.48-.59,2.48-2.36v-12.59h-64.27c-2,0-3.18-.71-3.53-1.77-.35-1.06,1.18-1.65,3.76-1.65ZM650.62,35.83h9.77l2.59-3.88c1.29-2,3.06-2.24,4.95-.59l4.71,4c2,1.77,2.35,3.77.59,4.47-.83.24-1.89.47-3.06.71v18.25c6.48,7.18,14.72,8,28.84,8,10.13,0,34.37,0,47.2-.24,2.23-.12,3.53.24,3.53.71s-1.06.71-2.59,2.12c-.59.59-1.06,1.18-1.41,2-.83,2-1.77,3.06-3.89,3.06h-42.85c-15.18,0-23.54-2.83-30.25-13.89l-2.59,2.35c-3.41,3.06-7.65,6.95-12.71,11.18,0,0-3.18,1.65-4.36-.71l-1.65-3.18c-1.06-2.24-.35-3.88,1.88-4.71,3.3-1.18,7.65-2.83,12.48-4.71v-21.66h-11.3c-2.12,0-3.29-.47-3.53-1.65-.23-.94,1.18-1.65,3.65-1.65ZM656.74,6.75c20.36,4.12,17.42,19.19,10,17.77-1.77-.35-2.47-1.65-3.18-3.3-1.65-4.12-4.59-8.24-7.89-11.42-1.64-1.77-2.59-2.71-2.23-3.06.35-.35,1.41-.35,3.29,0ZM672.63,88.45c22.13,2.24,20.01,18.13,12.12,17.07-1.77-.35-2.59-1.53-3.41-3.06-2-4-5.89-8.12-9.65-11.06-1.77-1.41-2.71-2.35-2.35-2.71.35-.35,1.29-.47,3.3-.24ZM678.75,16.29h17.54l-.47-.24c-.47-3.18-2.35-6.71-4.59-9.42-1.65-1.77-2.48-2.71-2.12-3.06s1.41-.47,3.3-.12c12.59,2,12.95,10.24,9.42,12.83h14.6c1.18-2.94,2.59-6.83,3.65-10.24.71-2.12,2.24-3.06,4.36-2.47l4.36,1.06c2.82.71,4.94,2.71,3.65,3.3-.71.24-1.53.35-2.59.35-2.47,2.59-6.24,5.53-9.89,8.01h14.25l3.06-4c1.42-1.77,3.06-2,4.95-.59,1.53,1.29,3.06,2.59,4.47,3.88,1.77,1.41,2.59,3.06,1.42,3.77-.47.24-1.06.35-1.88.35h-31.9c-1.65,2.47-3.65,5.18-5.65,7.41h19.07l2.24-2.47c1.41-1.65,3.18-1.88,4.94-.47l3.65,2.83c2,1.65,2.71,3.53,1.3,4.12-.71.35-1.53.59-2.35.82v28.96c-.12.82-4.36,2.94-7.3,2.94-.94,0-1.53-.82-1.53-2.24v-2.12h-35.08v1.65c0,.94-3.89,2.94-7.3,2.94-.82,0-1.29-1.3-1.29-3.53V27.59c0-2.71,1.65-3.89,4.12-2.71l4.95,2.24h9.06c.47-2.24,1.06-5.06,1.65-7.41h-26.01c-2,0-3.3-.59-3.65-1.77-.24-1.06,1.18-1.65,3.65-1.65ZM693.58,36.77h35.08v-6.24h-35.08v6.24ZM728.66,46.42v-6.24h-35.08v6.24h35.08ZM728.66,56.07v-6.36h-35.08v6.36h35.08Z"/>
    <path class="cls-2" d="M775.82,68.8c0,1.73.65,3.09,2.42,4.92,5.48,5.6,16.08,15.92,19.79,22.96,2.04,3.86,2.79,6.08,2.79,9.07s-1.86,5.11-4.37,5.11-3.99-2.7-6.04-8.01c-3.81-9.94-11.06-19.49-16.27-25.18-2.97-3.28-4.18-5.6-4.18-8.01,0-2.99,1.77-6.75,6.04-12.64,6.6-9.07,12.83-16.88,12.83-20.55,0-2.12-1.11-2.7-2.42-4.63-.93-1.35-.09-2.6,1.58-2.41,4.09.58,7.9,3.09,9.76,5.5,1.39,1.83,1.21,3.28-.84,6.37-3.81,5.79-13.57,14.57-18.87,22-1.58,2.22-2.23,4.25-2.23,5.5Z"/>
    <g>
      <path class="cls-1" d="M428.14,45.27c17.59-10.29,36.63-28.61,43.58-42.86.95-2.04,2.39-2.75,4.55-2.28l6.71,1.68c2.99.72,5.03,2.63,3.59,3.11-.72.24-1.68.48-2.87.6,9.81,12.21,28.25,22.03,46.21,28.01,2.04.72,3.12,1.44,2.99,1.91-.12.48-1.08.96-2.75,2.04-1.56.96-2.87,2.52-3.83,4.07-1.08,2.04-2.39,2.87-4.43,1.8-17.24-8.26-32.68-21.31-40.23-36.39-10.41,15.09-31.48,31.49-52.67,40.23-2.16.96-3.35,1.08-3.59.48-.24-.48.72-1.32,2.75-2.4ZM438.67,53.66c0-2.75,1.68-3.95,4.19-2.75l4.79,2.27h16.04l2.16-2.51c1.32-1.56,3.11-1.68,4.91-.24l3.35,2.63c2.03,1.68,2.75,3.47,1.43,4.19-.72.24-1.43.6-2.28.72v36.99c0,.84-4.43,2.87-7.18,2.87-.96,0-1.56-1.32-1.56-3.59v-5.75h-17.24v10.41c0,.84-3.59,2.99-7.3,2.99-.84,0-1.32-1.32-1.32-3.59v-44.65ZM464.53,56.77h-17.24v28.25h17.24v-28.25ZM458.18,35.82h28.25l3.47-4.31c1.44-1.92,3.23-2.04,5.03-.6l5.03,4.19c1.8,1.56,2.64,3.23,1.56,3.95-.48.24-1.2.36-1.91.36h-41.42c-2.04,0-3.35-.48-3.71-1.8-.24-1.08,1.2-1.8,3.71-1.8ZM483.32,52.94c0-2.75,1.68-3.83,4.19-2.75l5.15,2.39h17.48l2.15-2.63c1.32-1.67,3.12-1.91,4.91-.48l4.07,3.11c2.03,1.56,2.75,3.59,1.43,4.19-.72.36-1.56.72-2.51.84v30.17c0,5.87-.96,9.58-8.38,11.13-2.4.48-3.71-.72-4.19-2.75-.36-1.2-.72-2.28-1.32-2.99-.95-.96-2.28-1.68-4.43-2.28-2.16-.72-3.23-1.08-3.23-1.67s1.32-.84,3.83-.6c2.87.24,5.62.36,6.7.36,1.56,0,2.04-.72,2.04-2.28v-30.53h-19.04v50.76c0,.84-3.59,3.11-7.42,3.11-.84,0-1.44-1.32-1.44-3.59v-53.51Z"/>
      <path class="cls-1" d="M195.58,107.14c7.3-18.32,7.54-40.7,7.54-61.89V8.14c0-2.63,1.68-3.83,4.19-2.75l5.99,2.51h13.88l1.91-2.51c1.44-1.92,3.23-2.16,5.15-.6l3.71,2.99c2.04,1.68,2.75,3.59,1.44,4.19-.72.36-1.56.6-2.39.84v79.85c0,6.22-.96,10.3-8.74,11.85-2.39.6-3.71-.72-4.31-2.99-.36-1.32-.84-2.39-1.56-3.11-.96-1.08-2.39-2.03-4.79-2.75-2.16-.6-3.35-.96-3.35-1.56s1.32-.84,3.83-.6c3.47.24,6.58.48,7.78.48,1.8,0,2.16-.84,2.16-2.51v-25.02h-16.88c-.96,14.73-4.07,30.17-13.05,42.38-1.32,1.67-2.39,2.39-2.99,2.04-.6-.36-.48-1.56.48-3.71ZM228.03,38.3h-16.16v6.83c0,5.63,0,11.61-.48,17.72h16.64v-24.54ZM228.03,34.83V11.37h-16.16v23.47h16.16ZM234.73,107.26c11.13-16.64,12.57-37.47,12.57-59.02V8.97c0-2.63,1.68-3.83,4.19-2.75l6.23,2.75h14.25l2.64-3.23c1.43-1.8,3.23-2.04,5.03-.36l4.07,3.71c1.91,1.8,2.51,3.83.96,4.43-.72.24-1.56.36-2.64.6v79.49c0,1.8.36,2.52,2.04,2.52h3.11c1.56,0,2.63,0,3.35-.12.6,0,.95-.24,1.32-1.56.72-1.91,2.03-10.18,3.23-17.6,0-.24.12-.36.12-.6.36-2.15.95-3.23,1.32-3.23s.6,1.2.72,3.59l.48,18.8c2.63,1.2,3.11,2.28,3.11,4.19,0,3.71-3.47,5.75-13.88,5.75h-5.39c-7.18,0-8.38-2.63-8.38-8.86V12.45h-17v35.79c0,20.95-1.43,44.53-19.39,61.05-1.43,1.44-2.63,1.92-3.23,1.56-.6-.36-.12-1.56,1.2-3.59Z"/>
      <path class="cls-1" d="M316.56,51.96h9.22l2.87-3.95c1.32-1.91,3.23-2.28,5.03-.6l4.79,4.31c2.04,1.8,2.52,3.71.72,4.43-.84.24-1.8.48-2.99.72v31.49c8.02,9.34,16.52,10.65,36.75,10.65,12.33,0,28.61,0,42.14-.36,2.28-.12,3.59.24,3.59.72s-1.07.84-2.75,1.92c-1.44.84-2.39,2.04-3.11,3.71-.84,2.03-1.92,3.11-4.07,3.11h-35.68c-21.19,0-30.41-2.99-38.43-17.36-4.31,5.51-10.77,13.05-14.96,17.12,0,0-2.75.96-4.07-1.67l-1.8-3.35c-1.08-2.15-.48-3.71,1.55-4.79,3.59-1.8,7.78-4.19,11.97-6.7v-35.79h-10.77c-2.15,0-3.35-.6-3.59-1.8-.24-1.2,1.08-1.8,3.59-1.8ZM318.6,6.11c23.82,10.65,18.91,28.61,10.65,25.38-1.68-.72-2.16-2.04-2.64-3.83-1.55-6.46-5.51-13.53-9.69-18.91-1.56-1.92-2.28-2.99-1.8-3.35.48-.36,1.55-.24,3.47.72ZM343.49,13.77c2.75-1.44,5.27-4.67,6.22-8.5.48-2.15.72-3.35,1.32-3.35s1.32.96,1.8,2.99c.24,1.08.36,2.15.48,3.11h50.64l2.64-2.99c1.56-1.8,3.47-1.8,5.15-.12l3.59,3.59c1.91,2.04,2.51,4.07,1.2,4.31-.72.24-1.44.36-2.39.36-2.16,2.52-5.75,5.87-8.86,8.26,1.2.84,2.39,1.92,3.59,2.99,1.8,1.56,2.51,3.23,1.43,3.83-.6.36-1.2.48-1.91.48h-26.81v9.1h14.36l2.39-2.75c1.43-1.67,3.23-1.91,5.03-.48l4.19,3.35c2.03,1.68,2.63,3.59,1.07,4.31-.72.36-1.67.6-2.63.84v27.41c0,.72-4.43,2.75-7.42,2.75-.95,0-1.55-.84-1.55-2.04v-1.91h-15.44v11.61h19.87l3.35-4.43c1.43-1.92,3.23-2.15,5.03-.6,1.68,1.32,3.23,2.75,4.79,4.19,1.67,1.56,2.51,3.23,1.43,3.83-.48.24-1.08.36-1.91.36h-32.56v9.82c0,1.08-3.95,3.11-7.31,3.11-1.08,0-1.8-1.32-1.8-3.59v-9.34h-28.25c-2.03,0-3.23-.48-3.59-1.67-.24-1.08,1.2-1.68,3.71-1.68h28.13v-11.61h-15.2v2.27c0,.96-3.95,2.99-7.54,2.99-.84,0-1.43-1.32-1.43-3.59v-32.8c0-2.63,1.68-3.71,4.19-2.63l5.27,2.28h14.73v-9.1h-23.7c-2.04,0-3.35-.48-3.71-1.8-.24-1.08,1.2-1.8,3.71-1.8h23.7v-6.7c0-2.39,1.44-3.71,3.83-3.47l4.19.48c2.87.36,5.03,2.04,3.71,2.99-.6.48-1.43.72-2.63.96v5.75h14.6l3.12-3.95c1.43-1.91,2.51-2.75,2.87-2.39l.6.6.72-3.35,1.08-4.43h-51c-.12,5.75-2.63,9.82-5.63,11.49-2.99,1.44-7.06.96-8.38-2.28-.84-3.11,1.08-5.63,3.95-7.06ZM372.47,51.48v-10.06h-15.2v10.06h15.2ZM372.47,65.85v-10.89h-15.2v10.89h15.2ZM381.57,51.48h15.44v-10.06h-15.44v10.06ZM397.01,65.85v-10.89h-15.44v10.89h15.44Z"/>
      <path class="cls-1" d="M586.67,32.21c-.39.89-.99,2.48-1.88,4.56-.2,2.48,1.79,2.58,3.87,1.39,2.48-1.39,4.16-2.77,5.85-2.77,2.18,0,2.97,1.09,3.07,2.77,0,1.59-1.48,3.37-3.96,4.76-2.87,1.59-8.72,3.47-14.07,4.76-3.07,5.95-6.24,11.79-9.51,16.65-.5.79-.2.99.49.5,2.97-2.08,6.54-3.96,10.41-3.96,5.05,0,8.32,2.18,9.41,6.44,6.14-11.49,14.57-17.83,22.89-17.83,13.47,0,16.25,13.87,3.86,18.73-9.31,3.67-18.92,6.54-26.06,9.61,0,.3-.1.69-.1.99,0,4.36.1,9.51.1,11.49,0,3.17-1.39,4.56-3.87,4.56-2.18,0-3.27-1.59-3.27-4.56,0-1.48.2-5.15.4-8.92-5.05,3.17-10.01,7.83-10.01,12.88s5.35,6.14,13.67,6.14c6.94,0,15.16-2.18,17.84-2.18s4.46,1.09,4.46,3.07c0,2.28-1.48,3.57-4.26,4.46-3.57,1.09-10.6,1.88-17.34,1.88-12.98,0-20.61-4.06-20.61-11.59,0-6.34,5.65-13.67,16.55-20.31,0-1.19.1-2.48.1-3.47,0-5.65-1.39-7.04-5.15-7.04-4.95,0-11.89,5.65-17.04,12.09-2.78,3.47-5.35,7.33-7.93,7.33-1.98,0-3.57-2.08-3.57-4.66,0-3.17,7.13-8.82,9.71-11.79,4.66-5.45,9.02-12.29,12.49-19.32-4.16.49-8.72.49-11.39.2-5.05-.69-8.03-5.65-8.62-10.2-.2-1.69,1.29-2.48,2.68-1.29,2.48,2.18,5.15,4.26,8.22,4.85,3.17.59,7.13.59,11.99,0,3.76-9.11,2.97-10.3-1.19-12.58-1.59-.89-1.39-2.48.3-2.97,1.48-.49,2.87-.69,4.36-.69,2.38,0,4.95.79,6.74,1.98,1.19.79,1.19,2.18.39,4.06ZM593.41,71.25c4.86-2.08,11.99-4.95,18.83-8.32,7.04-3.47,6.34-8.92-.2-8.92s-14.36,8.22-18.63,17.24Z"/>
      <g>
        <path class="cls-1" d="M384.36,421.17c17.8-44.66,18.38-99.24,18.38-150.91v-90.48c0-6.42,4.09-9.34,10.22-6.71l14.59,6.13h33.86l4.67-6.13c3.5-4.67,7.88-5.25,12.55-1.46l9.05,7.3c4.96,4.09,6.71,8.76,3.5,10.22-1.75.88-3.79,1.46-5.84,2.04v194.69c0,15.18-2.34,25.1-21.31,28.9-5.84,1.46-9.05-1.75-10.51-7.3-.88-3.21-2.04-5.84-3.79-7.59-2.34-2.63-5.84-4.96-11.68-6.71-5.26-1.46-8.18-2.34-8.18-3.8s3.21-2.04,9.34-1.46c8.47.59,16.06,1.17,18.98,1.17,4.37,0,5.25-2.04,5.25-6.13v-61h-41.15c-2.34,35.9-9.92,73.56-31.81,103.32-3.21,4.09-5.84,5.84-7.3,4.96-1.46-.87-1.16-3.8,1.17-9.05ZM463.45,253.34h-39.4v16.64c0,13.72,0,28.31-1.17,43.2h40.57v-59.84ZM463.45,244.87v-57.21h-39.4v57.21h39.4ZM479.8,421.46c27.14-40.57,30.65-91.36,30.65-143.9v-95.74c0-6.42,4.08-9.34,10.21-6.71l15.18,6.71h34.74l6.42-7.88c3.51-4.38,7.88-4.96,12.26-.88l9.93,9.05c4.67,4.38,6.13,9.34,2.34,10.8-1.75.59-3.8.88-6.42,1.46v193.81c0,4.38.88,6.13,4.96,6.13h7.59c3.79,0,6.42,0,8.17-.29,1.46,0,2.34-.58,3.21-3.8,1.75-4.67,4.97-24.81,7.88-42.91,0-.58.3-.87.3-1.46.87-5.25,2.34-7.88,3.21-7.88s1.46,2.92,1.75,8.76l1.17,45.82c6.42,2.92,7.59,5.55,7.59,10.22,0,9.05-8.46,14.01-33.86,14.01h-13.13c-17.51,0-20.43-6.42-20.43-21.6v-204.9h-41.45v87.28c0,51.08-3.5,108.58-47.28,148.86-3.51,3.5-6.42,4.67-7.88,3.8-1.46-.87-.3-3.8,2.92-8.76Z"/>
        <path class="cls-1" d="M655.83,427.59c65.44-19.75,89.03-42.74,98.46-73.99h-94.92c-5.01,0-7.96-1.77-8.84-4.42-.59-2.65,2.95-4.13,9.13-4.13h96.69c1.47-7.96,2.06-16.8,2.66-25.94.59-5.9,3.83-8.84,9.43-8.25l13.26,1.18c7.07.59,12.38,4.42,9.43,6.78-1.47,1.18-3.54,2.06-6.19,2.36-.89,8.25-1.77,16.21-3.54,23.88h82.25l9.43-12.38c3.54-4.72,7.67-5.31,12.38-1.77,4.72,4.13,10.02,8.25,14.44,12.38,4.12,3.54,6.19,7.66,3.24,9.43-1.18.59-2.65.89-4.72.89h-108.19c20.34,34.19,58.96,48.93,109.66,54.83,5.9.59,8.84,1.48,8.84,2.36-.29,1.48-2.65,2.06-6.48,4.72-3.83,2.36-7.07,6.19-9.14,10.61-2.36,5.31-5.3,7.67-10.61,6.49-50.11-12.38-81.95-33.61-98.75-79h-4.12c-9.14,36.55-34.19,62.79-122.63,80.47-5.6,1.18-8.84,1.18-9.43-.89-.59-1.77,2.06-3.83,8.25-5.6ZM665.85,297.3h97.57v-35.08h-71.33c-5.02,0-7.96-1.77-8.85-4.42-.59-2.65,2.95-4.13,9.14-4.13h71.04v-33.31h-85.78c-5.3,0-8.25-1.77-8.84-4.42-.59-2.65,2.95-4.13,9.14-4.13h119.09c5.9-12.09,12.38-27.71,17.09-40.97,2.06-5.31,5.6-7.37,11.2-5.31l11.79,4.13c6.78,2.36,11.5,7.07,7.95,8.55-1.47.59-3.53.89-6.19.59-7.96,10.02-20.63,22.4-33.31,33.02h45.99l8.85-12.09c3.53-4.72,7.95-5.3,12.67-1.47l13.56,11.79c4.12,3.83,6.19,7.66,3.24,9.43-1.17.59-2.95.89-4.72.89h-97.86v33.31h51.29l8.25-11.2c3.54-4.42,7.96-5.01,12.68-1.48,4.12,3.54,8.25,7.37,12.08,10.61,4.42,3.83,6.48,7.96,3.54,9.73-1.18.59-2.95.88-4.72.88h-83.13v35.08h72.22l9.13-12.38c3.54-4.42,7.96-5.01,12.68-1.18l13.56,11.5c4.42,3.83,6.19,7.96,3.54,9.73-1.48.59-3.24.88-5.01.88h-227.87c-5.01,0-7.95-1.77-8.84-4.42-.59-2.65,2.95-4.13,9.13-4.13ZM719.79,166.71c47.17,14.15,35.97,50.12,17.69,44.51-4.42-1.47-5.6-4.72-7.07-9.14-2.65-10.02-8.25-20.05-14.44-28.3-3.54-4.72-5.31-7.07-4.42-7.96,1.18-.88,3.54-.59,8.25.88Z"/>
        <path class="cls-1" d="M110.54,420.76c21.5-12.37,43.59-29.45,57.73-44.77,3.53-4.13,7.66-4.71,12.08-1.47l8.25,5.6c5.89,4.13,9.72,10.31,6.48,10.6-1.48,0-3.54-.29-5.9-.88-17.08,13.55-47.42,28.57-76.88,37.11-5.01,1.47-7.66,1.47-8.54.29-.89-1.18,1.47-3.53,6.78-6.48ZM112.9,262.29h101.91v-26.51h-75.99c-5.3,0-8.25-1.77-8.84-4.42-.59-2.36,2.95-4.12,9.13-4.12h75.7v-26.22h-87.19c-5.3,0-8.25-1.76-8.83-4.42-.59-2.65,2.94-4.12,9.13-4.12h86.89v-19.14c0-5.89,3.24-9.13,9.13-8.54l11.78,1.18c6.78.59,12.08,4.71,8.84,7.07-1.48,1.18-3.54,1.77-6.48,2.36v17.08h62.74l8.54-11.19c3.54-4.42,7.95-5.01,12.67-1.47l12.67,10.6c4.42,3.83,6.48,7.95,3.83,9.72-1.47.59-3.24.88-5.01.88h-95.43v26.22h53.9l7.66-10.01c3.53-4.42,7.95-5.01,12.67-1.47,3.83,2.94,7.66,6.48,11.19,9.43,4.42,3.83,6.48,7.95,3.54,9.72-1.18.59-2.95.89-4.71.89h-84.24v26.51h74.52l8.54-12.08c3.24-4.71,7.95-5.3,12.37-1.47,4.42,3.83,9.13,7.66,13.25,11.49,4.42,3.83,6.19,7.95,3.53,9.43-1.47.88-2.94,1.18-4.71,1.18h-116.64c-12.66,10.9-28.57,23.56-42.42,32.4,15.32,12.08,12.08,27.69.89,28.28-4.12.29-6.78-2.36-9.43-5.89-8.25-10.31-21.8-20.91-34.46-28.57-5.3-3.24-8.25-5.3-7.36-6.48.88-.88,3.53-1.47,7.95-1.18,15.62,1.47,26.81,4.71,35.05,9.13,5.89-8.84,12.67-19.44,17.38-27.69h-83.95c-5.3,0-8.25-1.77-8.84-4.42-.59-2.65,2.94-4.13,9.13-4.13ZM116.43,342.99c17.97.29,42.42,0,71.28-.3,23.27-17.67,48.9-40.65,65.09-58.91,3.54-4.12,7.37-4.71,12.08-2.65l7.66,3.83c7.07,3.53,11.49,8.84,8.54,9.72-1.76.29-3.53.29-6.18,0-15.9,14.43-43.89,32.99-71.58,47.71,6.78,0,13.85-.29,21.21-.29l81.3-1.77c-7.37-6.77-15.91-13.26-23.56-18.26-5.01-3.24-7.37-5.3-6.48-6.48.89-.88,3.53-1.18,8.84-.3,70.69,13.26,70.39,58.03,50.66,56.26-4.12-.59-6.18-3.24-8.54-7.07-3.83-5.6-8.25-11.49-13.55-17.38-21.5,2.65-46.54,5.01-75.4,7.66v74.52c0,1.47-7.66,5.6-18.85,5.6-2.65,0-4.13-3.24-4.13-8.84v-69.51c-26.8,2.36-56.55,4.71-90.13,7.37,0,.3-.29.59-.29.59-3.24,4.71-8.84,2.06-11.2-3.53l-3.24-7.66c-2.65-6.19-.29-10.31,6.48-10.31ZM264.88,375.69c80.41,9.43,86.3,53.02,65.98,53.9-4.42,0-6.78-2.06-9.72-5.3-13.55-14.43-37.4-30.63-57.43-41.53-5.6-2.95-8.25-5.01-7.36-6.19.88-1.18,3.53-1.47,8.54-.88Z"/>
      </g>
      <g>
        <path class="cls-1" d="M84.33,709.34l-6.24-80.01H8.57c-4.82,0-7.66-1.7-8.51-4.25-.57-2.55,2.83-3.97,8.79-3.97h68.67l-5.39-73.49H8.57c-4.82,0-7.66-1.7-8.51-4.25-.57-2.55,2.83-3.97,8.79-3.97h62.7l-3.4-45.68c-.57-5.96,2.55-8.8,8.23-8.51l13.05.85c6.81.57,12.2,4.54,8.8,7.09-1.71,1.13-3.97,1.7-7.09,2.27l3.4,43.98h44.83l9.65-13.05c3.4-4.54,7.66-4.82,11.91-1.13,4.26,3.69,9.37,7.66,14.47,12.2,4.26,3.69,6.24,7.66,3.69,9.36-1.42.56-2.83.85-4.82.85h-79.16l5.67,73.49h38.59l9.65-13.05c3.4-4.54,7.66-4.82,11.91-1.13,4.26,3.69,9.37,7.66,14.47,12.2,4.26,3.69,6.24,7.66,3.69,9.36-1.42.56-2.83.85-4.82.85h-72.64l5.96,78.03c.28,3.4-8.8,9.36-18.16,10.21l-2.27.29c-1.42.29-2.55-3.12-2.83-8.51Z"/>
        <path class="cls-1" d="M232.42,618.67l-22.13.85c-5.11.29-7.94-.85-8.51-3.4-.56-1.98,2.84-3.69,8.8-3.97l20.99-.85-4.54-41.42c-.56-5.96,2.27-9.08,7.95-9.08h7.37c6.81,0,12.77,3.12,9.93,5.39-1.42.85-3.12,1.7-5.67,2.55l4.82,41.71,81.43-3.69,4.82-5.67c3.4-4.25,7.66-4.82,11.91-1.7l6.53,4.82c5.39,3.97,7.38,8.51,4.26,9.93-1.42.85-3.4,1.7-5.67,1.98-12.77,36.6-34.05,62.14-63.27,76.33-4.82,2.27-7.94,2.27-8.79.56-.85-1.7,1.13-3.69,5.39-7.09,23.55-17.02,38.87-41.14,45.4-72.07l-81.43,3.69,14.47,127.11c.57,4.54-2.27,11.63-13.05,15.32-3.12.85-4.82,0-5.11-2.27l-15.89-139.03Z"/>
        <path class="cls-1" d="M398.75,713.12c-.56-1.7,1.99-3.69,7.66-5.39,65.26-20.14,104.41-57.88,117.18-112.92h-131.37c-4.82,0-7.94-1.13-8.8-4.26-.56-2.55,2.84-4.26,8.8-4.26h128.53l6.24-7.37c3.4-4.26,7.66-4.54,11.92-1.13l11.63,8.79c5.1,3.97,6.53,8.79,2.55,10.5-1.71.56-3.97,1.42-6.53,1.7-12.77,63.27-59.02,101.86-139.03,116.05-5.11.85-7.94,0-8.8-1.7ZM397.89,518.19h102.14l9.65-13.05c3.4-4.54,7.66-4.82,11.91-1.13,4.26,3.69,9.36,7.66,14.47,12.2,4.26,3.69,6.24,7.66,3.69,9.36-1.42.56-2.83.85-4.82.85h-137.33c-4.82,0-7.66-1.7-8.51-4.25-.57-2.55,2.83-3.97,8.79-3.97Z"/>
        <path class="cls-1" d="M575.73,633.17c0-7.3,4.44-10.16,11.1-6.98l15.87,7.3h54.9v-142.49c0-6.35,3.49-9.84,9.84-9.2l13.96,1.27c7.3.63,13.01,5.08,9.52,7.93-1.59,1.27-3.8,1.9-7.29,2.54v55.22h75.21l12.06-16.18c3.8-5.08,8.56-5.72,13.33-1.59,6.03,5.08,12.38,10.79,18.09,15.87,4.45,4.12,6.67,8.89,3.49,10.47-1.27.64-3.18.95-5.39.95h-116.79v75.21h62.52l6.66-8.57c3.81-5.08,8.57-5.08,13.33-1.27l12.69,10.16c5.39,4.44,6.98,9.2,2.85,11.43-1.91.95-4.12,1.9-6.98,2.54v109.49c0,4.44-.95,7.93-5.39,9.84-4.44,1.9-11.43,4.13-16.5,4.13-2.22,0-3.81-3.49-3.81-9.52v-16.18h-147.57v18.41c0,2.54-11.11,8.57-21.58,8.57-2.54,0-4.12-3.49-4.12-9.52v-129.8ZM601.44,736.31h147.57v-93.94h-147.57v93.94Z"/>
        <path class="cls-1" d="M845.12,556.96c-.06-5.18,3.15-7.97,8.1-7.49l10.95.89c6.25.4,11.15,4.25,7.9,6.26-1.25.85-3.28,1.5-6.09,2.18-1.83,68.32,2.43,117.09,12.74,146.03,2.8,7.61,8.12,9.88,15.73,7.09,5.58-2.15,12.29-6.97,19.63-14.16,4.4-4.42,7.64-6.69,8.26-4.91.62,1.78,0,4.15-2.39,7.67-11.72,16.27-22.51,26.52-32.36,31.01-11.1,5.08-19.62,1.45-25.82-10.88-11.13-25.26-16.5-79.66-16.66-163.69ZM951.5,544.8c1.77-.63,4.17.26,7.21,3.45,36.66,40.05,44.59,123.87,44.4,142.03-.55,12.23-5.67,17.72-14,17.19-4.96-.48-9.07-4.12-9.19-10.34-.86-35.48-5.8-82.9-28.43-143.78-1.86-5.07-1.78-7.93,0-8.56Z"/>
      </g>
      <path class="cls-1" d="M645.96,79.79h64.04v-4.71c0-2.35,1.29-3.65,3.65-3.41l3.65.35c2.94.35,5.3,1.88,4.12,2.71-.47.35-1.29.59-2.35.82v4.24h10.36l3.06-4.12c1.41-1.88,3.18-2.12,4.94-.71,1.65,1.29,3.3,2.82,4.82,4.12,1.53,1.53,2.24,3.06,1.18,3.77-.47.24-1.18.35-1.88.35h-22.48v12.95c0,6.36-1.29,10.24-10.95,11.89-2.23.35-3.41-.71-4.24-2.71-.59-1.29-1.18-2.23-2.24-3.06-1.65-1.18-4-2-8.12-2.83-2.24-.47-3.29-.94-3.29-1.41s1.29-.71,3.65-.59c6.12.35,12.01.71,13.65.71,2,0,2.48-.59,2.48-2.36v-12.59h-64.27c-2,0-3.18-.71-3.53-1.77-.35-1.06,1.18-1.65,3.76-1.65ZM646.2,32.58h9.77l2.59-3.88c1.29-2,3.06-2.24,4.95-.59l4.71,4c2,1.77,2.35,3.77.59,4.47-.83.24-1.89.47-3.06.71v18.25c6.48,7.18,14.72,8,28.84,8,10.13,0,34.37,0,47.2-.24,2.23-.12,3.53.24,3.53.71s-1.06.71-2.59,2.12c-.59.59-1.06,1.18-1.41,2-.83,2-1.77,3.06-3.89,3.06h-42.85c-15.18,0-23.54-2.83-30.25-13.89l-2.59,2.35c-3.41,3.06-7.65,6.95-12.71,11.18,0,0-3.18,1.65-4.36-.71l-1.65-3.18c-1.06-2.24-.35-3.88,1.88-4.71,3.3-1.18,7.65-2.83,12.48-4.71v-21.66h-11.3c-2.12,0-3.29-.47-3.53-1.65-.23-.94,1.18-1.65,3.65-1.65ZM652.32,3.51c20.36,4.12,17.42,19.19,10,17.77-1.77-.35-2.47-1.65-3.18-3.3-1.65-4.12-4.59-8.24-7.89-11.42-1.64-1.77-2.59-2.71-2.23-3.06.35-.35,1.41-.35,3.29,0ZM668.21,85.2c22.13,2.24,20.01,18.13,12.12,17.07-1.77-.35-2.59-1.53-3.41-3.06-2-4-5.89-8.12-9.65-11.06-1.77-1.41-2.71-2.35-2.35-2.71.35-.35,1.29-.47,3.3-.24ZM674.33,13.04h17.54l-.47-.24c-.47-3.18-2.35-6.71-4.59-9.42-1.65-1.77-2.48-2.71-2.12-3.06.35-.35,1.41-.47,3.3-.12,12.59,2,12.95,10.24,9.42,12.83h14.6c1.18-2.94,2.59-6.83,3.65-10.24.71-2.12,2.24-3.06,4.36-2.47l4.36,1.06c2.82.71,4.94,2.71,3.65,3.3-.71.24-1.53.35-2.59.35-2.47,2.59-6.24,5.53-9.89,8.01h14.25l3.06-4c1.42-1.77,3.06-2,4.95-.59,1.53,1.29,3.06,2.59,4.47,3.88,1.77,1.41,2.59,3.06,1.42,3.77-.47.24-1.06.35-1.88.35h-31.9c-1.65,2.47-3.65,5.18-5.65,7.41h19.07l2.24-2.47c1.41-1.65,3.18-1.88,4.94-.47l3.65,2.83c2,1.65,2.71,3.53,1.3,4.12-.71.35-1.53.59-2.35.82v28.96c-.12.82-4.36,2.94-7.3,2.94-.94,0-1.53-.82-1.53-2.24v-2.12h-35.08v1.65c0,.94-3.89,2.94-7.3,2.94-.82,0-1.29-1.3-1.29-3.53V24.34c0-2.71,1.65-3.89,4.12-2.71l4.95,2.24h9.06c.47-2.24,1.06-5.06,1.65-7.41h-26.01c-2,0-3.3-.59-3.65-1.77-.24-1.06,1.18-1.65,3.65-1.65ZM689.16,33.53h35.08v-6.24h-35.08v6.24ZM724.24,43.18v-6.24h-35.08v6.24h35.08ZM724.24,52.83v-6.36h-35.08v6.36h35.08Z"/>
      <path class="cls-1" d="M771.4,65.55c0,1.73.65,3.09,2.42,4.92,5.48,5.6,16.08,15.92,19.79,22.96,2.04,3.86,2.79,6.08,2.79,9.07s-1.86,5.11-4.37,5.11-3.99-2.7-6.04-8.01c-3.81-9.94-11.06-19.49-16.27-25.18-2.97-3.28-4.18-5.6-4.18-8.01,0-2.99,1.77-6.75,6.04-12.64,6.6-9.07,12.83-16.88,12.83-20.55,0-2.12-1.11-2.7-2.42-4.63-.93-1.35-.09-2.6,1.58-2.41,4.09.58,7.9,3.09,9.76,5.5,1.39,1.83,1.21,3.28-.84,6.37-3.81,5.79-13.57,14.57-18.87,22-1.58,2.22-2.23,4.25-2.23,5.5Z"/>
    </g>
  </g>
</svg>